G04 #@! TF.GenerationSoftware,KiCad,Pcbnew,(6.0.7)*
G04 #@! TF.CreationDate,2022-09-05T10:31:39-04:00*
G04 #@! TF.ProjectId,quickfeather-board,71756963-6b66-4656-9174-6865722d626f,rev?*
G04 #@! TF.SameCoordinates,Original*
G04 #@! TF.FileFunction,Soldermask,Top*
G04 #@! TF.FilePolarity,Negative*
%FSLAX46Y46*%
G04 Gerber Fmt 4.6, Leading zero omitted, Abs format (unit mm)*
G04 Created by KiCad (PCBNEW (6.0.7)) date 2022-09-05 10:31:39*
%MOMM*%
%LPD*%
G01*
G04 APERTURE LIST*
G04 Aperture macros list*
%AMRoundRect*
0 Rectangle with rounded corners*
0 $1 Rounding radius*
0 $2 $3 $4 $5 $6 $7 $8 $9 X,Y pos of 4 corners*
0 Add a 4 corners polygon primitive as box body*
4,1,4,$2,$3,$4,$5,$6,$7,$8,$9,$2,$3,0*
0 Add four circle primitives for the rounded corners*
1,1,$1+$1,$2,$3*
1,1,$1+$1,$4,$5*
1,1,$1+$1,$6,$7*
1,1,$1+$1,$8,$9*
0 Add four rect primitives between the rounded corners*
20,1,$1+$1,$2,$3,$4,$5,0*
20,1,$1+$1,$4,$5,$6,$7,0*
20,1,$1+$1,$6,$7,$8,$9,0*
20,1,$1+$1,$8,$9,$2,$3,0*%
G04 Aperture macros list end*
%ADD10RoundRect,0.070000X0.525000X-0.300000X0.525000X0.300000X-0.525000X0.300000X-0.525000X-0.300000X0*%
%ADD11RoundRect,0.051000X-0.450000X-0.475000X0.450000X-0.475000X0.450000X0.475000X-0.450000X0.475000X0*%
%ADD12RoundRect,0.198500X-0.172500X0.147500X-0.172500X-0.147500X0.172500X-0.147500X0.172500X0.147500X0*%
%ADD13RoundRect,0.051000X0.400000X0.400000X-0.400000X0.400000X-0.400000X-0.400000X0.400000X-0.400000X0*%
%ADD14RoundRect,0.051000X-0.550000X-0.950000X0.550000X-0.950000X0.550000X0.950000X-0.550000X0.950000X0*%
%ADD15RoundRect,0.198500X-0.147500X-0.172500X0.147500X-0.172500X0.147500X0.172500X-0.147500X0.172500X0*%
%ADD16RoundRect,0.198500X0.172500X-0.147500X0.172500X0.147500X-0.172500X0.147500X-0.172500X-0.147500X0*%
%ADD17C,1.102000*%
%ADD18RoundRect,0.198500X0.147500X0.172500X-0.147500X0.172500X-0.147500X-0.172500X0.147500X-0.172500X0*%
%ADD19RoundRect,0.050000X0.150000X-0.150000X0.150000X0.150000X-0.150000X0.150000X-0.150000X-0.150000X0*%
%ADD20RoundRect,0.051000X0.400000X-0.300000X0.400000X0.300000X-0.400000X0.300000X-0.400000X-0.300000X0*%
%ADD21C,1.778000*%
%ADD22RoundRect,0.051000X-0.750000X-1.700000X0.750000X-1.700000X0.750000X1.700000X-0.750000X1.700000X0*%
%ADD23RoundRect,0.051000X-0.500000X-1.750000X0.500000X-1.750000X0.500000X1.750000X-0.500000X1.750000X0*%
%ADD24RoundRect,0.051000X1.395000X-0.370000X1.395000X0.370000X-1.395000X0.370000X-1.395000X-0.370000X0*%
%ADD25RoundRect,0.051000X-0.450000X-0.500000X0.450000X-0.500000X0.450000X0.500000X-0.450000X0.500000X0*%
%ADD26RoundRect,0.051000X-0.175000X-0.175000X0.175000X-0.175000X0.175000X0.175000X-0.175000X0.175000X0*%
%ADD27RoundRect,0.051000X-0.800000X0.550000X-0.800000X-0.550000X0.800000X-0.550000X0.800000X0.550000X0*%
%ADD28RoundRect,0.051000X-0.275000X-0.125000X0.275000X-0.125000X0.275000X0.125000X-0.275000X0.125000X0*%
%ADD29RoundRect,0.051000X0.300000X0.400000X-0.300000X0.400000X-0.300000X-0.400000X0.300000X-0.400000X0*%
%ADD30RoundRect,0.050000X-0.150000X-0.150000X0.150000X-0.150000X0.150000X0.150000X-0.150000X0.150000X0*%
%ADD31RoundRect,0.051000X-0.300000X-0.400000X0.300000X-0.400000X0.300000X0.400000X-0.300000X0.400000X0*%
%ADD32RoundRect,0.051000X-0.325000X0.125000X-0.325000X-0.125000X0.325000X-0.125000X0.325000X0.125000X0*%
%ADD33RoundRect,0.051000X0.125000X0.325000X-0.125000X0.325000X-0.125000X-0.325000X0.125000X-0.325000X0*%
%ADD34C,1.626000*%
%ADD35RoundRect,0.051000X0.300000X-0.150000X0.300000X0.150000X-0.300000X0.150000X-0.300000X-0.150000X0*%
%ADD36RoundRect,0.051000X-0.150000X-0.300000X0.150000X-0.300000X0.150000X0.300000X-0.150000X0.300000X0*%
%ADD37RoundRect,0.051000X0.150000X-0.400000X0.150000X0.400000X-0.150000X0.400000X-0.150000X-0.400000X0*%
%ADD38C,3.403600*%
%ADD39RoundRect,0.051000X-0.400000X-0.150000X0.400000X-0.150000X0.400000X0.150000X-0.400000X0.150000X0*%
%ADD40RoundRect,0.051000X0.375000X-0.225000X0.375000X0.225000X-0.375000X0.225000X-0.375000X-0.225000X0*%
%ADD41C,2.162000*%
%ADD42RoundRect,0.050000X0.150000X0.150000X-0.150000X0.150000X-0.150000X-0.150000X0.150000X-0.150000X0*%
%ADD43RoundRect,0.051000X-0.400000X0.500000X-0.400000X-0.500000X0.400000X-0.500000X0.400000X0.500000X0*%
%ADD44RoundRect,0.051000X0.750000X-0.250000X0.750000X0.250000X-0.750000X0.250000X-0.750000X-0.250000X0*%
%ADD45RoundRect,0.051000X-0.850000X-1.000000X0.850000X-1.000000X0.850000X1.000000X-0.850000X1.000000X0*%
%ADD46RoundRect,0.051000X-0.255000X0.200000X-0.255000X-0.200000X0.255000X-0.200000X0.255000X0.200000X0*%
%ADD47RoundRect,0.051000X-0.690000X-0.225000X0.690000X-0.225000X0.690000X0.225000X-0.690000X0.225000X0*%
%ADD48RoundRect,0.051000X-0.950000X-1.187500X0.950000X-1.187500X0.950000X1.187500X-0.950000X1.187500X0*%
%ADD49RoundRect,0.051000X-0.950000X-0.587500X0.950000X-0.587500X0.950000X0.587500X-0.950000X0.587500X0*%
%ADD50RoundRect,0.051000X-1.050000X-0.737500X1.050000X-0.737500X1.050000X0.737500X-1.050000X0.737500X0*%
%ADD51C,0.342000*%
G04 APERTURE END LIST*
D10*
X134085300Y-105676700D03*
X134085300Y-104726700D03*
X134085300Y-103776700D03*
X131385300Y-103776700D03*
X131385300Y-105676700D03*
D11*
X128175000Y-99426700D03*
X125025000Y-99426700D03*
D12*
X135400000Y-104975000D03*
X135400000Y-105945000D03*
D13*
X139680000Y-103730000D03*
X138180000Y-103730000D03*
D14*
X154025000Y-97430000D03*
X156435000Y-97430000D03*
D15*
X155805000Y-99210000D03*
X156775000Y-99210000D03*
D16*
X148430000Y-101135000D03*
X148430000Y-100165000D03*
D15*
X137885000Y-113110000D03*
X138855000Y-113110000D03*
D12*
X150470300Y-111066700D03*
X150470300Y-112036700D03*
X148220000Y-108895000D03*
X148220000Y-109865000D03*
D17*
X148160000Y-96710000D03*
X147140000Y-97720000D03*
D12*
X148250000Y-111035000D03*
X148250000Y-112005000D03*
D18*
X145796000Y-103723000D03*
X144826000Y-103723000D03*
D16*
X148300000Y-99085000D03*
X148300000Y-98115000D03*
X140980000Y-103330000D03*
X140980000Y-102360000D03*
D19*
X129875000Y-104800000D03*
X129875000Y-104100000D03*
X129025000Y-104450000D03*
D18*
X130110300Y-105826700D03*
X129140300Y-105826700D03*
D15*
X145005000Y-97670000D03*
X145975000Y-97670000D03*
D16*
X152660000Y-97635000D03*
X152660000Y-96665000D03*
D18*
X150325000Y-99230000D03*
X149355000Y-99230000D03*
D15*
X158715000Y-103520000D03*
X159685000Y-103520000D03*
D20*
X149650000Y-98150000D03*
X149650000Y-96750000D03*
D18*
X145800000Y-106320000D03*
X144830000Y-106320000D03*
D20*
X151040000Y-98150000D03*
X151040000Y-96750000D03*
D15*
X156625000Y-108590000D03*
X157595000Y-108590000D03*
D12*
X162720000Y-99185000D03*
X162720000Y-100155000D03*
D21*
X167537000Y-115187000D03*
X164997000Y-115187000D03*
X162457000Y-115187000D03*
X159917000Y-115187000D03*
X157377000Y-115187000D03*
X154837000Y-115187000D03*
X152297000Y-115187000D03*
X149757000Y-115187000D03*
X147217000Y-115187000D03*
X144677000Y-115187000D03*
X142137000Y-115187000D03*
X139597000Y-115187000D03*
X137047000Y-115187000D03*
X134507000Y-115187000D03*
X131967000Y-115187000D03*
X129427000Y-115187000D03*
D22*
X130419100Y-95350000D03*
X137119100Y-95350000D03*
D23*
X132769100Y-100900000D03*
X134769100Y-100900000D03*
D18*
X139685000Y-102420000D03*
X138715000Y-102420000D03*
D24*
X169195000Y-110083600D03*
X165125000Y-110083600D03*
X169195000Y-108813600D03*
X165125000Y-108813600D03*
X169195000Y-107543600D03*
X165125000Y-107543600D03*
X169195000Y-106273600D03*
X165125000Y-106273600D03*
X169195000Y-105003600D03*
X165125000Y-105003600D03*
D18*
X162875000Y-108740000D03*
X161905000Y-108740000D03*
X143355000Y-97790000D03*
X142385000Y-97790000D03*
D12*
X159570000Y-105725000D03*
X159570000Y-106695000D03*
D25*
X133880000Y-107650000D03*
X133880000Y-109250000D03*
X129780000Y-107650000D03*
X129780000Y-109250000D03*
D15*
X142385000Y-99850000D03*
X143355000Y-99850000D03*
D26*
X143675000Y-100810000D03*
X143675000Y-101460000D03*
X143675000Y-102110000D03*
X143675000Y-102760000D03*
X142225000Y-102760000D03*
X142225000Y-102110000D03*
X142225000Y-101460000D03*
X142225000Y-100810000D03*
D27*
X138380000Y-109830000D03*
X138380000Y-111630000D03*
D16*
X135390000Y-107935000D03*
X135390000Y-106965000D03*
D28*
X136935000Y-106650000D03*
X136935000Y-107150000D03*
X136935000Y-107650000D03*
X136935000Y-108150000D03*
X138285000Y-108150000D03*
X138285000Y-107650000D03*
X138285000Y-107150000D03*
X138285000Y-106650000D03*
D16*
X135380000Y-111865000D03*
X135380000Y-110895000D03*
X135400000Y-109925000D03*
X135400000Y-108955000D03*
D29*
X139750000Y-105200000D03*
X138350000Y-105200000D03*
D20*
X136680000Y-111880000D03*
X136680000Y-110480000D03*
X129290000Y-102930000D03*
X129290000Y-101530000D03*
D18*
X143345000Y-98900000D03*
X142375000Y-98900000D03*
D16*
X147480000Y-102055000D03*
X147480000Y-101085000D03*
D30*
X166400000Y-103565000D03*
X167100000Y-103565000D03*
X166750000Y-102715000D03*
D31*
X135490000Y-103720000D03*
X136890000Y-103720000D03*
D12*
X149360000Y-111055000D03*
X149360000Y-112025000D03*
D16*
X159560000Y-108625000D03*
X159560000Y-107655000D03*
D12*
X168380000Y-111615000D03*
X168380000Y-112585000D03*
X124800000Y-110205000D03*
X124800000Y-111175000D03*
X158520000Y-107645000D03*
X158520000Y-108615000D03*
D32*
X143500000Y-105145000D03*
X143500000Y-104750000D03*
X143500000Y-104350000D03*
X143500000Y-103950000D03*
D33*
X142800000Y-103800000D03*
D32*
X142100000Y-103950000D03*
X142100000Y-104350000D03*
X142100000Y-104750000D03*
X142100000Y-105145000D03*
D33*
X142800000Y-105240000D03*
D16*
X140901000Y-105678000D03*
X140901000Y-104708000D03*
X143841000Y-106978000D03*
X143841000Y-106008000D03*
D15*
X141696000Y-106623000D03*
X142666000Y-106623000D03*
D34*
X167551000Y-97383000D03*
X167531000Y-99923000D03*
D16*
X167270300Y-112586700D03*
X167270300Y-111616700D03*
D25*
X133880000Y-111350000D03*
X133880000Y-112950000D03*
X129780000Y-111350000D03*
X129780000Y-112950000D03*
D35*
X146130000Y-99940000D03*
X146130000Y-99440000D03*
X146130000Y-98940000D03*
X144630000Y-98940000D03*
X144630000Y-99440000D03*
X144630000Y-99940000D03*
D36*
X164140000Y-103510000D03*
X164640000Y-103510000D03*
X165140000Y-103510000D03*
X165140000Y-102010000D03*
X164640000Y-102010000D03*
X164140000Y-102010000D03*
X161590000Y-102980000D03*
X162090000Y-102980000D03*
X162590000Y-102980000D03*
X162590000Y-101480000D03*
X162090000Y-101480000D03*
X161590000Y-101480000D03*
D34*
X165011100Y-97383600D03*
X164991100Y-99923600D03*
D16*
X162730000Y-98185000D03*
X162730000Y-97215000D03*
D18*
X145955000Y-96750000D03*
X144985000Y-96750000D03*
D15*
X143015000Y-96740000D03*
X143985000Y-96740000D03*
D18*
X142025000Y-96750000D03*
X141055000Y-96750000D03*
D37*
X155240000Y-112160000D03*
X155740000Y-112160000D03*
X156240000Y-112160000D03*
X156740000Y-112160000D03*
X157240000Y-112160000D03*
X157740000Y-112160000D03*
X158240000Y-112160000D03*
X158740000Y-112160000D03*
X158740000Y-110360000D03*
X158240000Y-110360000D03*
X157740000Y-110360000D03*
X157240000Y-110360000D03*
X156740000Y-110360000D03*
X156240000Y-110360000D03*
X155740000Y-110360000D03*
X155240000Y-110360000D03*
D38*
X125655100Y-96089600D03*
X125655100Y-113869600D03*
X171375100Y-113869600D03*
X171375100Y-96089600D03*
D39*
X171511000Y-98593000D03*
X171511000Y-99093000D03*
X171511000Y-99593000D03*
X171511000Y-100093000D03*
X171511000Y-100593000D03*
X171511000Y-101093000D03*
X171511000Y-101593000D03*
X171511000Y-102093000D03*
X173311000Y-102093000D03*
X173311000Y-101593000D03*
X173311000Y-101093000D03*
X173311000Y-100593000D03*
X173311000Y-100093000D03*
X173311000Y-99593000D03*
X173311000Y-99093000D03*
X173311000Y-98593000D03*
D40*
X160840000Y-107170000D03*
X160840000Y-106470000D03*
X162540000Y-107170000D03*
X162540000Y-106460000D03*
D41*
X161690000Y-104980000D03*
D18*
X156815000Y-100260000D03*
X155845000Y-100260000D03*
X160135000Y-102250000D03*
X159165000Y-102250000D03*
D42*
X162730000Y-109745000D03*
X162030000Y-109745000D03*
X162380000Y-110595000D03*
D43*
X140700000Y-98380000D03*
X140700000Y-100880000D03*
X139300000Y-100880000D03*
X139300000Y-98380000D03*
D37*
X157850000Y-99540000D03*
X158350000Y-99540000D03*
X158850000Y-99540000D03*
X159350000Y-99540000D03*
X159850000Y-99540000D03*
X160350000Y-99540000D03*
X160850000Y-99540000D03*
X161350000Y-99540000D03*
X161350000Y-97740000D03*
X160850000Y-97740000D03*
X160350000Y-97740000D03*
X159850000Y-97740000D03*
X159350000Y-97740000D03*
X158850000Y-97740000D03*
X158350000Y-97740000D03*
X157850000Y-97740000D03*
D17*
X158530000Y-106490000D03*
D34*
X145550000Y-102070000D03*
X161196000Y-112624000D03*
D16*
X160850000Y-110515000D03*
X160850000Y-109545000D03*
D12*
X147350000Y-99125000D03*
X147350000Y-100095000D03*
D13*
X163770300Y-112151700D03*
X166020300Y-112151700D03*
D21*
X139611000Y-94843000D03*
X142151000Y-94843000D03*
X144691000Y-94843000D03*
X147231000Y-94843000D03*
X149771000Y-94843000D03*
X152311000Y-94843000D03*
X154851000Y-94843000D03*
X157391000Y-94843000D03*
X159931000Y-94843000D03*
X162471000Y-94843000D03*
X165011000Y-94843000D03*
X167551000Y-94843000D03*
X175195000Y-94857000D03*
X177711000Y-94843000D03*
X175195000Y-97383000D03*
X177711000Y-97383000D03*
X175171000Y-99923000D03*
X177711000Y-99923000D03*
X175195000Y-102463000D03*
X177711000Y-102463000D03*
X175171000Y-105003000D03*
X177711000Y-105003000D03*
X175195000Y-107543000D03*
X177711000Y-107543000D03*
X175171000Y-110083000D03*
X177711000Y-110083000D03*
X175171000Y-112623000D03*
X177711000Y-112623000D03*
D39*
X171511000Y-103893000D03*
X171511000Y-104393000D03*
X171511000Y-104893000D03*
X171511000Y-105393000D03*
X171511000Y-105893000D03*
X171511000Y-106393000D03*
X171511000Y-106893000D03*
X171511000Y-107393000D03*
X173311000Y-107393000D03*
X173311000Y-106893000D03*
X173311000Y-106393000D03*
X173311000Y-105893000D03*
X173311000Y-105393000D03*
X173311000Y-104893000D03*
X173311000Y-104393000D03*
X173311000Y-103893000D03*
D44*
X140400000Y-108495000D03*
X140400000Y-109765000D03*
X140400000Y-111035000D03*
X140400000Y-112305000D03*
X146400000Y-112305000D03*
X146400000Y-111035000D03*
X146400000Y-109765000D03*
X146400000Y-108495000D03*
D45*
X144250000Y-109400000D03*
X142550000Y-109400000D03*
X144250000Y-111400000D03*
X142550000Y-111400000D03*
D12*
X125870300Y-110216700D03*
X125870300Y-111186700D03*
D46*
X126895300Y-110201700D03*
X126895300Y-111201700D03*
X128195300Y-110701700D03*
D15*
X136360300Y-105426700D03*
X137330300Y-105426700D03*
D47*
X127480000Y-103703600D03*
X127480000Y-104353600D03*
X127480000Y-105003600D03*
X127480000Y-105653600D03*
X127480000Y-106303600D03*
D48*
X124820000Y-107916100D03*
D49*
X124820000Y-104166100D03*
X124820000Y-105841100D03*
D48*
X124820000Y-102091100D03*
D50*
X127120000Y-102541100D03*
X127120000Y-107466100D03*
D18*
X150330300Y-113101700D03*
X149360300Y-113101700D03*
D12*
X153495300Y-112241700D03*
X153495300Y-113211700D03*
X151570300Y-112166700D03*
X151570300Y-113136700D03*
D51*
X150347401Y-104948700D03*
X150630244Y-104665857D03*
X150913086Y-104383015D03*
X151195929Y-104100172D03*
X151478772Y-103817329D03*
X151761615Y-103534486D03*
X152044457Y-103251644D03*
X152327300Y-102968801D03*
X150630244Y-105231543D03*
X150913086Y-104948700D03*
X151195929Y-104665857D03*
X151478772Y-104383015D03*
X151761615Y-104100172D03*
X152044457Y-103817329D03*
X152327300Y-103534486D03*
X152610143Y-103251644D03*
X150913086Y-105514385D03*
X151195929Y-105231543D03*
X151478772Y-104948700D03*
X151761615Y-104665857D03*
X152044457Y-104383015D03*
X152327300Y-104100172D03*
X152610143Y-103817329D03*
X152892985Y-103534486D03*
X151195929Y-105797228D03*
X151478772Y-105514385D03*
X151761615Y-105231543D03*
X152044457Y-104948700D03*
X152327300Y-104665857D03*
X152610143Y-104383015D03*
X152892985Y-104100172D03*
X153175828Y-103817329D03*
X151478772Y-106080071D03*
X151761615Y-105797228D03*
X152044457Y-105514385D03*
X152327300Y-105231543D03*
X152610143Y-104948700D03*
X152892985Y-104665857D03*
X153175828Y-104383015D03*
X153458671Y-104100172D03*
X151761615Y-106362914D03*
X152044457Y-106080071D03*
X152327300Y-105797228D03*
X152610143Y-105514385D03*
X152892985Y-105231543D03*
X153175828Y-104948700D03*
X153458671Y-104665857D03*
X153741514Y-104383015D03*
X152044457Y-106645756D03*
X152327300Y-106362914D03*
X152610143Y-106080071D03*
X152892985Y-105797228D03*
X153175828Y-105514385D03*
X153458671Y-105231543D03*
X153741514Y-104948700D03*
X154024356Y-104665857D03*
X152327300Y-106928599D03*
X152610143Y-106645756D03*
X152892985Y-106362914D03*
X153175828Y-106080071D03*
X153458671Y-105797228D03*
X153741514Y-105514385D03*
X154024356Y-105231543D03*
X154307199Y-104948700D03*
M02*
