G04 #@! TF.GenerationSoftware,KiCad,Pcbnew,(6.0.7)*
G04 #@! TF.CreationDate,2022-09-05T10:31:39-04:00*
G04 #@! TF.ProjectId,quickfeather-board,71756963-6b66-4656-9174-6865722d626f,rev?*
G04 #@! TF.SameCoordinates,Original*
G04 #@! TF.FileFunction,Legend,Top*
G04 #@! TF.FilePolarity,Positive*
%FSLAX46Y46*%
G04 Gerber Fmt 4.6, Leading zero omitted, Abs format (unit mm)*
G04 Created by KiCad (PCBNEW (6.0.7)) date 2022-09-05 10:31:39*
%MOMM*%
%LPD*%
G01*
G04 APERTURE LIST*
G04 Aperture macros list*
%AMRoundRect*
0 Rectangle with rounded corners*
0 $1 Rounding radius*
0 $2 $3 $4 $5 $6 $7 $8 $9 X,Y pos of 4 corners*
0 Add a 4 corners polygon primitive as box body*
4,1,4,$2,$3,$4,$5,$6,$7,$8,$9,$2,$3,0*
0 Add four circle primitives for the rounded corners*
1,1,$1+$1,$2,$3*
1,1,$1+$1,$4,$5*
1,1,$1+$1,$6,$7*
1,1,$1+$1,$8,$9*
0 Add four rect primitives between the rounded corners*
20,1,$1+$1,$2,$3,$4,$5,0*
20,1,$1+$1,$4,$5,$6,$7,0*
20,1,$1+$1,$6,$7,$8,$9,0*
20,1,$1+$1,$8,$9,$2,$3,0*%
G04 Aperture macros list end*
%ADD10C,0.150000*%
%ADD11C,0.200000*%
%ADD12C,0.100000*%
%ADD13C,0.120000*%
%ADD14C,0.127000*%
%ADD15C,0.400000*%
%ADD16RoundRect,0.070000X0.525000X-0.300000X0.525000X0.300000X-0.525000X0.300000X-0.525000X-0.300000X0*%
%ADD17RoundRect,0.051000X-0.450000X-0.475000X0.450000X-0.475000X0.450000X0.475000X-0.450000X0.475000X0*%
%ADD18RoundRect,0.198500X-0.172500X0.147500X-0.172500X-0.147500X0.172500X-0.147500X0.172500X0.147500X0*%
%ADD19RoundRect,0.051000X0.400000X0.400000X-0.400000X0.400000X-0.400000X-0.400000X0.400000X-0.400000X0*%
%ADD20RoundRect,0.051000X-0.550000X-0.950000X0.550000X-0.950000X0.550000X0.950000X-0.550000X0.950000X0*%
%ADD21RoundRect,0.198500X-0.147500X-0.172500X0.147500X-0.172500X0.147500X0.172500X-0.147500X0.172500X0*%
%ADD22RoundRect,0.198500X0.172500X-0.147500X0.172500X0.147500X-0.172500X0.147500X-0.172500X-0.147500X0*%
%ADD23C,1.102000*%
%ADD24RoundRect,0.198500X0.147500X0.172500X-0.147500X0.172500X-0.147500X-0.172500X0.147500X-0.172500X0*%
%ADD25RoundRect,0.050000X0.150000X-0.150000X0.150000X0.150000X-0.150000X0.150000X-0.150000X-0.150000X0*%
%ADD26RoundRect,0.051000X0.400000X-0.300000X0.400000X0.300000X-0.400000X0.300000X-0.400000X-0.300000X0*%
%ADD27C,1.778000*%
%ADD28RoundRect,0.051000X-0.750000X-1.700000X0.750000X-1.700000X0.750000X1.700000X-0.750000X1.700000X0*%
%ADD29RoundRect,0.051000X-0.500000X-1.750000X0.500000X-1.750000X0.500000X1.750000X-0.500000X1.750000X0*%
%ADD30RoundRect,0.051000X1.395000X-0.370000X1.395000X0.370000X-1.395000X0.370000X-1.395000X-0.370000X0*%
%ADD31RoundRect,0.051000X-0.450000X-0.500000X0.450000X-0.500000X0.450000X0.500000X-0.450000X0.500000X0*%
%ADD32RoundRect,0.051000X-0.175000X-0.175000X0.175000X-0.175000X0.175000X0.175000X-0.175000X0.175000X0*%
%ADD33RoundRect,0.051000X-0.800000X0.550000X-0.800000X-0.550000X0.800000X-0.550000X0.800000X0.550000X0*%
%ADD34RoundRect,0.051000X-0.275000X-0.125000X0.275000X-0.125000X0.275000X0.125000X-0.275000X0.125000X0*%
%ADD35RoundRect,0.051000X0.300000X0.400000X-0.300000X0.400000X-0.300000X-0.400000X0.300000X-0.400000X0*%
%ADD36RoundRect,0.050000X-0.150000X-0.150000X0.150000X-0.150000X0.150000X0.150000X-0.150000X0.150000X0*%
%ADD37RoundRect,0.051000X-0.300000X-0.400000X0.300000X-0.400000X0.300000X0.400000X-0.300000X0.400000X0*%
%ADD38RoundRect,0.051000X-0.325000X0.125000X-0.325000X-0.125000X0.325000X-0.125000X0.325000X0.125000X0*%
%ADD39RoundRect,0.051000X0.125000X0.325000X-0.125000X0.325000X-0.125000X-0.325000X0.125000X-0.325000X0*%
%ADD40C,1.626000*%
%ADD41RoundRect,0.051000X0.300000X-0.150000X0.300000X0.150000X-0.300000X0.150000X-0.300000X-0.150000X0*%
%ADD42RoundRect,0.051000X-0.150000X-0.300000X0.150000X-0.300000X0.150000X0.300000X-0.150000X0.300000X0*%
%ADD43RoundRect,0.051000X0.150000X-0.400000X0.150000X0.400000X-0.150000X0.400000X-0.150000X-0.400000X0*%
%ADD44C,3.403600*%
%ADD45RoundRect,0.051000X-0.400000X-0.150000X0.400000X-0.150000X0.400000X0.150000X-0.400000X0.150000X0*%
%ADD46RoundRect,0.051000X0.375000X-0.225000X0.375000X0.225000X-0.375000X0.225000X-0.375000X-0.225000X0*%
%ADD47C,2.162000*%
%ADD48RoundRect,0.050000X0.150000X0.150000X-0.150000X0.150000X-0.150000X-0.150000X0.150000X-0.150000X0*%
%ADD49RoundRect,0.051000X-0.400000X0.500000X-0.400000X-0.500000X0.400000X-0.500000X0.400000X0.500000X0*%
%ADD50RoundRect,0.051000X0.750000X-0.250000X0.750000X0.250000X-0.750000X0.250000X-0.750000X-0.250000X0*%
%ADD51RoundRect,0.051000X-0.850000X-1.000000X0.850000X-1.000000X0.850000X1.000000X-0.850000X1.000000X0*%
%ADD52RoundRect,0.051000X-0.255000X0.200000X-0.255000X-0.200000X0.255000X-0.200000X0.255000X0.200000X0*%
%ADD53RoundRect,0.051000X-0.690000X-0.225000X0.690000X-0.225000X0.690000X0.225000X-0.690000X0.225000X0*%
%ADD54RoundRect,0.051000X-0.950000X-1.187500X0.950000X-1.187500X0.950000X1.187500X-0.950000X1.187500X0*%
%ADD55RoundRect,0.051000X-0.950000X-0.587500X0.950000X-0.587500X0.950000X0.587500X-0.950000X0.587500X0*%
%ADD56RoundRect,0.051000X-1.050000X-0.737500X1.050000X-0.737500X1.050000X0.737500X-1.050000X0.737500X0*%
%ADD57C,0.342000*%
G04 APERTURE END LIST*
D10*
X129151428Y-113218571D02*
X128865714Y-113418571D01*
X129151428Y-113561428D02*
X128551428Y-113561428D01*
X128551428Y-113332857D01*
X128580000Y-113275714D01*
X128608571Y-113247142D01*
X128665714Y-113218571D01*
X128751428Y-113218571D01*
X128808571Y-113247142D01*
X128837142Y-113275714D01*
X128865714Y-113332857D01*
X128865714Y-113561428D01*
X129122857Y-112990000D02*
X129151428Y-112904285D01*
X129151428Y-112761428D01*
X129122857Y-112704285D01*
X129094285Y-112675714D01*
X129037142Y-112647142D01*
X128980000Y-112647142D01*
X128922857Y-112675714D01*
X128894285Y-112704285D01*
X128865714Y-112761428D01*
X128837142Y-112875714D01*
X128808571Y-112932857D01*
X128780000Y-112961428D01*
X128722857Y-112990000D01*
X128665714Y-112990000D01*
X128608571Y-112961428D01*
X128580000Y-112932857D01*
X128551428Y-112875714D01*
X128551428Y-112732857D01*
X128580000Y-112647142D01*
X128551428Y-112475714D02*
X128551428Y-112132857D01*
X129151428Y-112304285D02*
X128551428Y-112304285D01*
X136050000Y-100966666D02*
X136050000Y-100433333D01*
X136316666Y-100700000D02*
X135783333Y-100700000D01*
X131766666Y-100750000D02*
X131233333Y-100750000D01*
D11*
X181081728Y-112153600D02*
X181010300Y-112277409D01*
X180867442Y-112401219D01*
X180653157Y-112586933D01*
X180581728Y-112710742D01*
X180581728Y-112834552D01*
X180938871Y-112772647D02*
X180867442Y-112896457D01*
X180724585Y-113020266D01*
X180438871Y-113082171D01*
X179938871Y-113082171D01*
X179653157Y-113020266D01*
X179510300Y-112896457D01*
X179438871Y-112772647D01*
X179438871Y-112525028D01*
X179510300Y-112401219D01*
X179653157Y-112277409D01*
X179938871Y-112215504D01*
X180438871Y-112215504D01*
X180724585Y-112277409D01*
X180867442Y-112401219D01*
X180938871Y-112525028D01*
X180938871Y-112772647D01*
X179938871Y-111101219D02*
X180938871Y-111101219D01*
X179938871Y-111658361D02*
X180724585Y-111658361D01*
X180867442Y-111596457D01*
X180938871Y-111472647D01*
X180938871Y-111286933D01*
X180867442Y-111163123D01*
X180796014Y-111101219D01*
X180938871Y-110482171D02*
X179938871Y-110482171D01*
X179438871Y-110482171D02*
X179510300Y-110544076D01*
X179581728Y-110482171D01*
X179510300Y-110420266D01*
X179438871Y-110482171D01*
X179581728Y-110482171D01*
X180867442Y-109305980D02*
X180938871Y-109429790D01*
X180938871Y-109677409D01*
X180867442Y-109801219D01*
X180796014Y-109863123D01*
X180653157Y-109925028D01*
X180224585Y-109925028D01*
X180081728Y-109863123D01*
X180010300Y-109801219D01*
X179938871Y-109677409D01*
X179938871Y-109429790D01*
X180010300Y-109305980D01*
X180938871Y-108748838D02*
X179438871Y-108748838D01*
X180367442Y-108625028D02*
X180938871Y-108253600D01*
X179938871Y-108253600D02*
X180510300Y-108748838D01*
X180153157Y-107263123D02*
X180153157Y-107696457D01*
X180938871Y-107696457D02*
X179438871Y-107696457D01*
X179438871Y-107077409D01*
X180867442Y-106086933D02*
X180938871Y-106210742D01*
X180938871Y-106458361D01*
X180867442Y-106582171D01*
X180724585Y-106644076D01*
X180153157Y-106644076D01*
X180010300Y-106582171D01*
X179938871Y-106458361D01*
X179938871Y-106210742D01*
X180010300Y-106086933D01*
X180153157Y-106025028D01*
X180296014Y-106025028D01*
X180438871Y-106644076D01*
X180938871Y-104910742D02*
X180153157Y-104910742D01*
X180010300Y-104972647D01*
X179938871Y-105096457D01*
X179938871Y-105344076D01*
X180010300Y-105467885D01*
X180867442Y-104910742D02*
X180938871Y-105034552D01*
X180938871Y-105344076D01*
X180867442Y-105467885D01*
X180724585Y-105529790D01*
X180581728Y-105529790D01*
X180438871Y-105467885D01*
X180367442Y-105344076D01*
X180367442Y-105034552D01*
X180296014Y-104910742D01*
X179938871Y-104477409D02*
X179938871Y-103982171D01*
X179438871Y-104291695D02*
X180724585Y-104291695D01*
X180867442Y-104229790D01*
X180938871Y-104105980D01*
X180938871Y-103982171D01*
X180938871Y-103548838D02*
X179438871Y-103548838D01*
X180938871Y-102991695D02*
X180153157Y-102991695D01*
X180010300Y-103053600D01*
X179938871Y-103177409D01*
X179938871Y-103363123D01*
X180010300Y-103486933D01*
X180081728Y-103548838D01*
X180867442Y-101877409D02*
X180938871Y-102001219D01*
X180938871Y-102248838D01*
X180867442Y-102372647D01*
X180724585Y-102434552D01*
X180153157Y-102434552D01*
X180010300Y-102372647D01*
X179938871Y-102248838D01*
X179938871Y-102001219D01*
X180010300Y-101877409D01*
X180153157Y-101815504D01*
X180296014Y-101815504D01*
X180438871Y-102434552D01*
X180938871Y-101258361D02*
X179938871Y-101258361D01*
X180224585Y-101258361D02*
X180081728Y-101196457D01*
X180010300Y-101134552D01*
X179938871Y-101010742D01*
X179938871Y-100886933D01*
X180938871Y-98782171D02*
X180938871Y-99525028D01*
X180938871Y-99153600D02*
X179438871Y-99153600D01*
X179653157Y-99277409D01*
X179796014Y-99401219D01*
X179867442Y-99525028D01*
X180796014Y-98225028D02*
X180867442Y-98163123D01*
X180938871Y-98225028D01*
X180867442Y-98286933D01*
X180796014Y-98225028D01*
X180938871Y-98225028D01*
X179581728Y-97667885D02*
X179510300Y-97605980D01*
X179438871Y-97482171D01*
X179438871Y-97172647D01*
X179510300Y-97048838D01*
X179581728Y-96986933D01*
X179724585Y-96925028D01*
X179867442Y-96925028D01*
X180081728Y-96986933D01*
X180938871Y-97729790D01*
X180938871Y-96925028D01*
D10*
X128571428Y-109887142D02*
X129057142Y-109887142D01*
X129114285Y-109858571D01*
X129142857Y-109830000D01*
X129171428Y-109772857D01*
X129171428Y-109658571D01*
X129142857Y-109601428D01*
X129114285Y-109572857D01*
X129057142Y-109544285D01*
X128571428Y-109544285D01*
X129142857Y-109287142D02*
X129171428Y-109201428D01*
X129171428Y-109058571D01*
X129142857Y-109001428D01*
X129114285Y-108972857D01*
X129057142Y-108944285D01*
X129000000Y-108944285D01*
X128942857Y-108972857D01*
X128914285Y-109001428D01*
X128885714Y-109058571D01*
X128857142Y-109172857D01*
X128828571Y-109230000D01*
X128800000Y-109258571D01*
X128742857Y-109287142D01*
X128685714Y-109287142D01*
X128628571Y-109258571D01*
X128600000Y-109230000D01*
X128571428Y-109172857D01*
X128571428Y-109030000D01*
X128600000Y-108944285D01*
X129171428Y-108344285D02*
X128885714Y-108544285D01*
X129171428Y-108687142D02*
X128571428Y-108687142D01*
X128571428Y-108458571D01*
X128600000Y-108401428D01*
X128628571Y-108372857D01*
X128685714Y-108344285D01*
X128771428Y-108344285D01*
X128828571Y-108372857D01*
X128857142Y-108401428D01*
X128885714Y-108458571D01*
X128885714Y-108687142D01*
X128366666Y-94116666D02*
X128366666Y-94616666D01*
X128333333Y-94716666D01*
X128266666Y-94783333D01*
X128166666Y-94816666D01*
X128100000Y-94816666D01*
X129000000Y-94350000D02*
X129000000Y-94816666D01*
X128833333Y-94083333D02*
X128666666Y-94583333D01*
X129100000Y-94583333D01*
X167506566Y-96296066D02*
X167506566Y-96796066D01*
X167473233Y-96896066D01*
X167406566Y-96962733D01*
X167306566Y-96996066D01*
X167239900Y-96996066D01*
X167806566Y-96362733D02*
X167839900Y-96329400D01*
X167906566Y-96296066D01*
X168073233Y-96296066D01*
X168139900Y-96329400D01*
X168173233Y-96362733D01*
X168206566Y-96429400D01*
X168206566Y-96496066D01*
X168173233Y-96596066D01*
X167773233Y-96996066D01*
X168206566Y-96996066D01*
X144756666Y-113206666D02*
X144756666Y-113773333D01*
X144790000Y-113840000D01*
X144823333Y-113873333D01*
X144890000Y-113906666D01*
X145023333Y-113906666D01*
X145090000Y-113873333D01*
X145123333Y-113840000D01*
X145156666Y-113773333D01*
X145156666Y-113206666D01*
X145423333Y-113206666D02*
X145856666Y-113206666D01*
X145623333Y-113473333D01*
X145723333Y-113473333D01*
X145790000Y-113506666D01*
X145823333Y-113540000D01*
X145856666Y-113606666D01*
X145856666Y-113773333D01*
X145823333Y-113840000D01*
X145790000Y-113873333D01*
X145723333Y-113906666D01*
X145523333Y-113906666D01*
X145456666Y-113873333D01*
X145423333Y-113840000D01*
X150012366Y-104014308D02*
X149305259Y-103307201D01*
X150685801Y-103206186D02*
X150685801Y-103273530D01*
X150618458Y-103408217D01*
X150551114Y-103475560D01*
X150416427Y-103542904D01*
X150281740Y-103542904D01*
X150180725Y-103509232D01*
X150012366Y-103408217D01*
X149911351Y-103307201D01*
X149810336Y-103138843D01*
X149776664Y-103037827D01*
X149776664Y-102903140D01*
X149844007Y-102768453D01*
X149911351Y-102701110D01*
X150046038Y-102633766D01*
X150113381Y-102633766D01*
X151426580Y-102600094D02*
X151022519Y-103004156D01*
X151224549Y-102802125D02*
X150517443Y-102095018D01*
X150551114Y-102263377D01*
X150551114Y-102398064D01*
X150517443Y-102499079D01*
D12*
X133735300Y-103076700D02*
X133435300Y-103076700D01*
X133410300Y-106376700D02*
X133035300Y-106376700D01*
X133410300Y-106376700D02*
X133735300Y-106151700D01*
X131735300Y-103076700D02*
X132060300Y-103076700D01*
X133735300Y-103401700D02*
X133735300Y-103076700D01*
X131735300Y-106051700D02*
X131735300Y-106376700D01*
X131735300Y-103376700D02*
X131735300Y-103076700D01*
X133735300Y-106151700D02*
X133735300Y-106051700D01*
X133735300Y-106051700D02*
X134260300Y-106051700D01*
X131735300Y-106376700D02*
X132035300Y-106376700D01*
X125375000Y-98451700D02*
X125375000Y-100401700D01*
X125475000Y-98451700D02*
X125475000Y-100401700D01*
X127925000Y-100151700D02*
X127925000Y-100401700D01*
X127925000Y-100401700D02*
X127675000Y-100401700D01*
X125275000Y-98451700D02*
X125275000Y-100401700D01*
X127925000Y-98451700D02*
X127925000Y-98676700D01*
X125625000Y-100401700D02*
X125275000Y-100401700D01*
X125625000Y-98451700D02*
X125275000Y-98451700D01*
X127625000Y-98451700D02*
X127925000Y-98451700D01*
D13*
X140230000Y-104230000D02*
X140230000Y-104030000D01*
X140030000Y-104230000D02*
X138530000Y-104230000D01*
X140230000Y-104030000D02*
X140230000Y-103230000D01*
X140030000Y-104230000D02*
X140130000Y-104230000D01*
X140130000Y-104230000D02*
X140230000Y-104230000D01*
X140230000Y-103230000D02*
X138530000Y-103230000D01*
D12*
X155230000Y-96530000D02*
X154930000Y-96530000D01*
X155230000Y-98330000D02*
X155530000Y-98330000D01*
X153330000Y-96730000D02*
X153330000Y-98130000D01*
X155230000Y-98330000D02*
X154930000Y-98330000D01*
X155230000Y-96530000D02*
X155530000Y-96530000D01*
X129725000Y-105100000D02*
X129825000Y-105025000D01*
X129725000Y-103800000D02*
X130000000Y-103800000D01*
X128900000Y-103800000D02*
X129275000Y-103800000D01*
X130000000Y-103800000D02*
X130000000Y-103900000D01*
X128900000Y-104200000D02*
X128900000Y-103800000D01*
X128900000Y-104775000D02*
X128900000Y-105100000D01*
X128900000Y-105100000D02*
X129175000Y-105100000D01*
X129725000Y-105100000D02*
X129600000Y-105100000D01*
X129825000Y-105025000D02*
X129975000Y-105025000D01*
D13*
X149950000Y-97750000D02*
X149950000Y-97150000D01*
X149350000Y-97750000D02*
X149350000Y-97150000D01*
X151340000Y-97750000D02*
X151340000Y-97150000D01*
X150740000Y-97750000D02*
X150740000Y-97150000D01*
D10*
X168037000Y-113227000D02*
X166987000Y-113227000D01*
X166987000Y-113227000D02*
X167512000Y-113752000D01*
X167512000Y-113752000D02*
X168037000Y-113227000D01*
D12*
X137819100Y-102350000D02*
X137819100Y-101850000D01*
X129619100Y-93550000D02*
X130119100Y-93550000D01*
X129619100Y-93550000D02*
X129619100Y-94050000D01*
X137919100Y-93550000D02*
X137919100Y-94050000D01*
X137819100Y-102350000D02*
X137319100Y-102350000D01*
X137919100Y-93550000D02*
X137419100Y-93550000D01*
X129719100Y-102350000D02*
X130219100Y-102350000D01*
X129719100Y-102350000D02*
X129719100Y-101850000D01*
X165360000Y-104243600D02*
X165860000Y-104243600D01*
D11*
X170716000Y-110083600D02*
X171732000Y-110591600D01*
X171732000Y-110591600D02*
X171732000Y-109575600D01*
D12*
X168960000Y-110843600D02*
X168360000Y-110843600D01*
X168960000Y-104243600D02*
X168460000Y-104243600D01*
X165360000Y-110643600D02*
X165360000Y-110843600D01*
X165360000Y-104443600D02*
X165360000Y-104243600D01*
X165360000Y-110843600D02*
X165860000Y-110843600D01*
X168960000Y-104443600D02*
X168960000Y-104243600D01*
X168960000Y-110643600D02*
X168960000Y-110843600D01*
D11*
X171732000Y-109575600D02*
X170716000Y-110083600D01*
D13*
X129730000Y-106850000D02*
X133930000Y-106850000D01*
X129730000Y-110050000D02*
X133930000Y-110050000D01*
X129730000Y-110030000D02*
X129730000Y-109910000D01*
X133930000Y-106850000D02*
X133930000Y-106970000D01*
X129730000Y-106850000D02*
X129730000Y-106970000D01*
X133930000Y-110050000D02*
X133930000Y-109950000D01*
D14*
X134712250Y-106813200D02*
G75*
G03*
X134712250Y-106813200I-15650J0D01*
G01*
D15*
X144680000Y-101007000D02*
G75*
G03*
X144680000Y-101007000I-100000J0D01*
G01*
D13*
X137530000Y-110480000D02*
X137530000Y-110980000D01*
X139230000Y-110480000D02*
X139230000Y-110980000D01*
X136960000Y-108550000D02*
X138260000Y-108550000D01*
X136735000Y-106250000D02*
X138635000Y-106250000D01*
X139350000Y-104900000D02*
X138750000Y-104900000D01*
X139350000Y-105500000D02*
X138750000Y-105500000D01*
X136380000Y-111480000D02*
X136380000Y-110880000D01*
X136980000Y-111480000D02*
X136980000Y-110880000D01*
X129590000Y-102530000D02*
X129590000Y-101930000D01*
X128990000Y-102530000D02*
X128990000Y-101930000D01*
D12*
X166425000Y-102590000D02*
X166100000Y-102590000D01*
X167000000Y-102590000D02*
X167400000Y-102590000D01*
X167400000Y-103690000D02*
X167300000Y-103690000D01*
X167400000Y-102590000D02*
X167400000Y-102965000D01*
X166175000Y-103515000D02*
X166175000Y-103665000D01*
X166100000Y-102590000D02*
X166100000Y-102865000D01*
X166100000Y-103415000D02*
X166175000Y-103515000D01*
X166100000Y-103415000D02*
X166100000Y-103290000D01*
X167400000Y-103415000D02*
X167400000Y-103690000D01*
D13*
X135890000Y-104020000D02*
X136490000Y-104020000D01*
X135890000Y-103420000D02*
X136490000Y-103420000D01*
D10*
X141850000Y-105470000D02*
X141850000Y-105770000D01*
X141550000Y-103570000D02*
X141850000Y-103570000D01*
X143750000Y-103570000D02*
X143750000Y-103270000D01*
X141850000Y-103570000D02*
X141850000Y-103270000D01*
X141550000Y-105470000D02*
X141850000Y-105470000D01*
X144050000Y-103570000D02*
X143750000Y-103570000D01*
X144050000Y-105470000D02*
X143775000Y-105470000D01*
X144536158Y-105270000D02*
G75*
G03*
X144536158Y-105270000I-76158J0D01*
G01*
D12*
X166151000Y-95983000D02*
X166151000Y-96483000D01*
X168951000Y-101283000D02*
X168451000Y-101283000D01*
X168951000Y-95983000D02*
X168951000Y-96483000D01*
X166151000Y-101283000D02*
X166651000Y-101283000D01*
X166151000Y-101283000D02*
X166151000Y-100783000D01*
X166151000Y-95983000D02*
X166651000Y-95983000D01*
X168951000Y-95983000D02*
X168451000Y-95983000D01*
X168951000Y-101283000D02*
X168951000Y-100783000D01*
D13*
X129730000Y-110550000D02*
X133930000Y-110550000D01*
X129730000Y-113730000D02*
X129730000Y-113610000D01*
X133930000Y-110550000D02*
X133930000Y-110670000D01*
X133930000Y-113750000D02*
X133930000Y-113650000D01*
X129730000Y-110550000D02*
X129730000Y-110670000D01*
X129730000Y-113750000D02*
X133930000Y-113750000D01*
D14*
X134712250Y-110513200D02*
G75*
G03*
X134712250Y-110513200I-15650J0D01*
G01*
D12*
X144605000Y-100415000D02*
X144605000Y-100215000D01*
X146155000Y-98665000D02*
X146155000Y-98490000D01*
X146105000Y-100215000D02*
X146330000Y-100215000D01*
X146155000Y-98490000D02*
X145805000Y-98490000D01*
X145880000Y-100415000D02*
X146105000Y-100215000D01*
X144605000Y-98665000D02*
X144605000Y-98465000D01*
X144605000Y-98465000D02*
X144855000Y-98465000D01*
X144605000Y-100415000D02*
X144855000Y-100415000D01*
X163865000Y-103485000D02*
X163865000Y-103710000D01*
X165590000Y-103535000D02*
X165590000Y-103185000D01*
X165415000Y-103535000D02*
X165590000Y-103535000D01*
X163665000Y-101985000D02*
X163865000Y-101985000D01*
X163665000Y-101985000D02*
X163665000Y-102235000D01*
X165615000Y-101985000D02*
X165615000Y-102235000D01*
X163665000Y-103260000D02*
X163865000Y-103485000D01*
X165415000Y-101985000D02*
X165615000Y-101985000D01*
X163065000Y-101455000D02*
X163065000Y-101705000D01*
X163040000Y-103005000D02*
X163040000Y-102655000D01*
X161315000Y-102955000D02*
X161315000Y-103180000D01*
X161115000Y-102730000D02*
X161315000Y-102955000D01*
X161115000Y-101455000D02*
X161115000Y-101705000D01*
X162865000Y-103005000D02*
X163040000Y-103005000D01*
X162865000Y-101455000D02*
X163065000Y-101455000D01*
X161115000Y-101455000D02*
X161315000Y-101455000D01*
X166411100Y-95983600D02*
X165911100Y-95983600D01*
X163611100Y-101283600D02*
X163611100Y-100783600D01*
X163611100Y-101283600D02*
X164111100Y-101283600D01*
X163611100Y-95983600D02*
X164111100Y-95983600D01*
X163611100Y-95983600D02*
X163611100Y-96483600D01*
X166411100Y-95983600D02*
X166411100Y-96483600D01*
X166411100Y-101283600D02*
X165911100Y-101283600D01*
X166411100Y-101283600D02*
X166411100Y-100783600D01*
D13*
X159110000Y-110760000D02*
X159110000Y-111760000D01*
X154870000Y-110760000D02*
X154870000Y-111760000D01*
X172911000Y-102463000D02*
X171911000Y-102463000D01*
X172911000Y-98223000D02*
X171911000Y-98223000D01*
D12*
X163030000Y-110720000D02*
X163030000Y-110445000D01*
X161730000Y-109620000D02*
X161830000Y-109620000D01*
X162955000Y-109795000D02*
X162955000Y-109645000D01*
X161730000Y-110720000D02*
X161730000Y-110345000D01*
X162130000Y-110720000D02*
X161730000Y-110720000D01*
X162705000Y-110720000D02*
X163030000Y-110720000D01*
X163030000Y-109895000D02*
X162955000Y-109795000D01*
X163030000Y-109895000D02*
X163030000Y-110020000D01*
X161730000Y-109895000D02*
X161730000Y-109620000D01*
D13*
X140700000Y-97680000D02*
X141500000Y-97680000D01*
X138500000Y-97680000D02*
X138500000Y-101580000D01*
X141500000Y-97680000D02*
X141500000Y-101580000D01*
X157480000Y-98140000D02*
X157480000Y-99140000D01*
X161720000Y-98140000D02*
X161720000Y-99140000D01*
D12*
X144150000Y-100670000D02*
X144650000Y-100670000D01*
X146948100Y-103470000D02*
X146448100Y-103470000D01*
X146948100Y-100670000D02*
X146948100Y-101170000D01*
X146948100Y-100670000D02*
X146448100Y-100670000D01*
X144150000Y-100670000D02*
X144150000Y-101170000D01*
X144150000Y-103470000D02*
X144650000Y-103470000D01*
X144150000Y-103470000D02*
X144150000Y-102970000D01*
X146948100Y-103470000D02*
X146948100Y-102970000D01*
X159796000Y-114024000D02*
X160296000Y-114024000D01*
X159796000Y-111224000D02*
X160296000Y-111224000D01*
X159796000Y-114024000D02*
X159796000Y-113524000D01*
X162594100Y-111224000D02*
X162594100Y-111724000D01*
X159796000Y-111224000D02*
X159796000Y-111724000D01*
X162594100Y-114024000D02*
X162594100Y-113524000D01*
X162594100Y-114024000D02*
X162094100Y-114024000D01*
X162594100Y-111224000D02*
X162094100Y-111224000D01*
X165595300Y-111651700D02*
X165595300Y-112651700D01*
X165595300Y-112651700D02*
X165695300Y-112651700D01*
X165920300Y-111636700D02*
X165920300Y-111336700D01*
X165545300Y-112976700D02*
X165920300Y-112976700D01*
X163870300Y-111651700D02*
X163870300Y-111326700D01*
X165695300Y-112651700D02*
X165695300Y-111651700D01*
X163870300Y-111326700D02*
X164170300Y-111326700D01*
X165545300Y-111336700D02*
X165920300Y-111336700D01*
X164195300Y-112976700D02*
X163870300Y-112976700D01*
X163870300Y-112976700D02*
X163870300Y-112701700D01*
X165920300Y-112976700D02*
X165920300Y-112676700D01*
X165695300Y-111651700D02*
X165595300Y-111651700D01*
D10*
X139636000Y-96278000D02*
X139111000Y-96803000D01*
X139111000Y-96803000D02*
X140161000Y-96803000D01*
X140161000Y-96803000D02*
X139636000Y-96278000D01*
X173760000Y-94882000D02*
X173235000Y-94357000D01*
X173235000Y-95407000D02*
X173760000Y-94882000D01*
X173235000Y-94357000D02*
X173235000Y-95407000D01*
D13*
X172911000Y-107763000D02*
X171911000Y-107763000D01*
X172911000Y-103523000D02*
X171911000Y-103523000D01*
D15*
X138520000Y-108500000D02*
G75*
G03*
X138520000Y-108500000I-200000J0D01*
G01*
D12*
X128095060Y-109976700D02*
X128095060Y-110426700D01*
X127595060Y-109776700D02*
X127895060Y-109776700D01*
X128095060Y-110426700D02*
X128295060Y-110426700D01*
X127895060Y-109776700D02*
X128095060Y-109976700D01*
X123120000Y-101003600D02*
X123120000Y-101503600D01*
X128370000Y-109003600D02*
X127870000Y-109003600D01*
X123120000Y-109003600D02*
X123620000Y-109003600D01*
X123120000Y-109003600D02*
X123120000Y-108503600D01*
X123120000Y-101003600D02*
X123670000Y-101003600D01*
X128370000Y-101003600D02*
X127870000Y-101003600D01*
X128370000Y-101003600D02*
X128370000Y-101503600D01*
X128120000Y-103403600D02*
X126820000Y-103403600D01*
X128370000Y-109003600D02*
X128370000Y-108503600D01*
D13*
X152946018Y-106974561D02*
X152327300Y-107593279D01*
X152327300Y-107593279D02*
X151708582Y-106974561D01*
X151708582Y-102922839D02*
X152327300Y-102304121D01*
X151708582Y-102922839D02*
X152327300Y-102304121D01*
X149682721Y-104948700D02*
X150301439Y-104329982D01*
X152327300Y-102304121D02*
X152946018Y-102922839D01*
X154353161Y-105567418D02*
X154971879Y-104948700D01*
X152327300Y-102304121D02*
X152946018Y-102922839D01*
X154971879Y-104948700D02*
X154353161Y-104329982D01*
X152327300Y-102304121D02*
X152946018Y-102922839D01*
X149682721Y-104948700D02*
X150301439Y-105567418D01*
X151708582Y-102922839D02*
X152327300Y-102304121D01*
D11*
X149553618Y-105307910D02*
G75*
G03*
X149553618Y-105307910I-100000J0D01*
G01*
%LPC*%
D16*
X134085300Y-105676700D03*
X134085300Y-104726700D03*
X134085300Y-103776700D03*
X131385300Y-103776700D03*
X131385300Y-105676700D03*
D17*
X128175000Y-99426700D03*
X125025000Y-99426700D03*
D18*
X135400000Y-104975000D03*
X135400000Y-105945000D03*
D19*
X139680000Y-103730000D03*
X138180000Y-103730000D03*
D20*
X154025000Y-97430000D03*
X156435000Y-97430000D03*
D21*
X155805000Y-99210000D03*
X156775000Y-99210000D03*
D22*
X148430000Y-101135000D03*
X148430000Y-100165000D03*
D21*
X137885000Y-113110000D03*
X138855000Y-113110000D03*
D18*
X150470300Y-111066700D03*
X150470300Y-112036700D03*
X148220000Y-108895000D03*
X148220000Y-109865000D03*
D23*
X148160000Y-96710000D03*
X147140000Y-97720000D03*
D18*
X148250000Y-111035000D03*
X148250000Y-112005000D03*
D24*
X145796000Y-103723000D03*
X144826000Y-103723000D03*
D22*
X148300000Y-99085000D03*
X148300000Y-98115000D03*
X140980000Y-103330000D03*
X140980000Y-102360000D03*
D25*
X129875000Y-104800000D03*
X129875000Y-104100000D03*
X129025000Y-104450000D03*
D24*
X130110300Y-105826700D03*
X129140300Y-105826700D03*
D21*
X145005000Y-97670000D03*
X145975000Y-97670000D03*
D22*
X152660000Y-97635000D03*
X152660000Y-96665000D03*
D24*
X150325000Y-99230000D03*
X149355000Y-99230000D03*
D21*
X158715000Y-103520000D03*
X159685000Y-103520000D03*
D26*
X149650000Y-98150000D03*
X149650000Y-96750000D03*
D24*
X145800000Y-106320000D03*
X144830000Y-106320000D03*
D26*
X151040000Y-98150000D03*
X151040000Y-96750000D03*
D21*
X156625000Y-108590000D03*
X157595000Y-108590000D03*
D18*
X162720000Y-99185000D03*
X162720000Y-100155000D03*
D27*
X167537000Y-115187000D03*
X164997000Y-115187000D03*
X162457000Y-115187000D03*
X159917000Y-115187000D03*
X157377000Y-115187000D03*
X154837000Y-115187000D03*
X152297000Y-115187000D03*
X149757000Y-115187000D03*
X147217000Y-115187000D03*
X144677000Y-115187000D03*
X142137000Y-115187000D03*
X139597000Y-115187000D03*
X137047000Y-115187000D03*
X134507000Y-115187000D03*
X131967000Y-115187000D03*
X129427000Y-115187000D03*
D28*
X130419100Y-95350000D03*
X137119100Y-95350000D03*
D29*
X132769100Y-100900000D03*
X134769100Y-100900000D03*
D24*
X139685000Y-102420000D03*
X138715000Y-102420000D03*
D30*
X169195000Y-110083600D03*
X165125000Y-110083600D03*
X169195000Y-108813600D03*
X165125000Y-108813600D03*
X169195000Y-107543600D03*
X165125000Y-107543600D03*
X169195000Y-106273600D03*
X165125000Y-106273600D03*
X169195000Y-105003600D03*
X165125000Y-105003600D03*
D24*
X162875000Y-108740000D03*
X161905000Y-108740000D03*
X143355000Y-97790000D03*
X142385000Y-97790000D03*
D18*
X159570000Y-105725000D03*
X159570000Y-106695000D03*
D31*
X133880000Y-107650000D03*
X133880000Y-109250000D03*
X129780000Y-107650000D03*
X129780000Y-109250000D03*
D21*
X142385000Y-99850000D03*
X143355000Y-99850000D03*
D32*
X143675000Y-100810000D03*
X143675000Y-101460000D03*
X143675000Y-102110000D03*
X143675000Y-102760000D03*
X142225000Y-102760000D03*
X142225000Y-102110000D03*
X142225000Y-101460000D03*
X142225000Y-100810000D03*
D33*
X138380000Y-109830000D03*
X138380000Y-111630000D03*
D22*
X135390000Y-107935000D03*
X135390000Y-106965000D03*
D34*
X136935000Y-106650000D03*
X136935000Y-107150000D03*
X136935000Y-107650000D03*
X136935000Y-108150000D03*
X138285000Y-108150000D03*
X138285000Y-107650000D03*
X138285000Y-107150000D03*
X138285000Y-106650000D03*
D22*
X135380000Y-111865000D03*
X135380000Y-110895000D03*
X135400000Y-109925000D03*
X135400000Y-108955000D03*
D35*
X139750000Y-105200000D03*
X138350000Y-105200000D03*
D26*
X136680000Y-111880000D03*
X136680000Y-110480000D03*
X129290000Y-102930000D03*
X129290000Y-101530000D03*
D24*
X143345000Y-98900000D03*
X142375000Y-98900000D03*
D22*
X147480000Y-102055000D03*
X147480000Y-101085000D03*
D36*
X166400000Y-103565000D03*
X167100000Y-103565000D03*
X166750000Y-102715000D03*
D37*
X135490000Y-103720000D03*
X136890000Y-103720000D03*
D18*
X149360000Y-111055000D03*
X149360000Y-112025000D03*
D22*
X159560000Y-108625000D03*
X159560000Y-107655000D03*
D18*
X168380000Y-111615000D03*
X168380000Y-112585000D03*
X124800000Y-110205000D03*
X124800000Y-111175000D03*
X158520000Y-107645000D03*
X158520000Y-108615000D03*
D38*
X143500000Y-105145000D03*
X143500000Y-104750000D03*
X143500000Y-104350000D03*
X143500000Y-103950000D03*
D39*
X142800000Y-103800000D03*
D38*
X142100000Y-103950000D03*
X142100000Y-104350000D03*
X142100000Y-104750000D03*
X142100000Y-105145000D03*
D39*
X142800000Y-105240000D03*
D22*
X140901000Y-105678000D03*
X140901000Y-104708000D03*
X143841000Y-106978000D03*
X143841000Y-106008000D03*
D21*
X141696000Y-106623000D03*
X142666000Y-106623000D03*
D40*
X167551000Y-97383000D03*
X167531000Y-99923000D03*
D22*
X167270300Y-112586700D03*
X167270300Y-111616700D03*
D31*
X133880000Y-111350000D03*
X133880000Y-112950000D03*
X129780000Y-111350000D03*
X129780000Y-112950000D03*
D41*
X146130000Y-99940000D03*
X146130000Y-99440000D03*
X146130000Y-98940000D03*
X144630000Y-98940000D03*
X144630000Y-99440000D03*
X144630000Y-99940000D03*
D42*
X164140000Y-103510000D03*
X164640000Y-103510000D03*
X165140000Y-103510000D03*
X165140000Y-102010000D03*
X164640000Y-102010000D03*
X164140000Y-102010000D03*
X161590000Y-102980000D03*
X162090000Y-102980000D03*
X162590000Y-102980000D03*
X162590000Y-101480000D03*
X162090000Y-101480000D03*
X161590000Y-101480000D03*
D40*
X165011100Y-97383600D03*
X164991100Y-99923600D03*
D22*
X162730000Y-98185000D03*
X162730000Y-97215000D03*
D24*
X145955000Y-96750000D03*
X144985000Y-96750000D03*
D21*
X143015000Y-96740000D03*
X143985000Y-96740000D03*
D24*
X142025000Y-96750000D03*
X141055000Y-96750000D03*
D43*
X155240000Y-112160000D03*
X155740000Y-112160000D03*
X156240000Y-112160000D03*
X156740000Y-112160000D03*
X157240000Y-112160000D03*
X157740000Y-112160000D03*
X158240000Y-112160000D03*
X158740000Y-112160000D03*
X158740000Y-110360000D03*
X158240000Y-110360000D03*
X157740000Y-110360000D03*
X157240000Y-110360000D03*
X156740000Y-110360000D03*
X156240000Y-110360000D03*
X155740000Y-110360000D03*
X155240000Y-110360000D03*
D44*
X125655100Y-96089600D03*
X125655100Y-113869600D03*
X171375100Y-113869600D03*
X171375100Y-96089600D03*
D45*
X171511000Y-98593000D03*
X171511000Y-99093000D03*
X171511000Y-99593000D03*
X171511000Y-100093000D03*
X171511000Y-100593000D03*
X171511000Y-101093000D03*
X171511000Y-101593000D03*
X171511000Y-102093000D03*
X173311000Y-102093000D03*
X173311000Y-101593000D03*
X173311000Y-101093000D03*
X173311000Y-100593000D03*
X173311000Y-100093000D03*
X173311000Y-99593000D03*
X173311000Y-99093000D03*
X173311000Y-98593000D03*
D46*
X160840000Y-107170000D03*
X160840000Y-106470000D03*
X162540000Y-107170000D03*
X162540000Y-106460000D03*
D47*
X161690000Y-104980000D03*
D24*
X156815000Y-100260000D03*
X155845000Y-100260000D03*
X160135000Y-102250000D03*
X159165000Y-102250000D03*
D48*
X162730000Y-109745000D03*
X162030000Y-109745000D03*
X162380000Y-110595000D03*
D49*
X140700000Y-98380000D03*
X140700000Y-100880000D03*
X139300000Y-100880000D03*
X139300000Y-98380000D03*
D43*
X157850000Y-99540000D03*
X158350000Y-99540000D03*
X158850000Y-99540000D03*
X159350000Y-99540000D03*
X159850000Y-99540000D03*
X160350000Y-99540000D03*
X160850000Y-99540000D03*
X161350000Y-99540000D03*
X161350000Y-97740000D03*
X160850000Y-97740000D03*
X160350000Y-97740000D03*
X159850000Y-97740000D03*
X159350000Y-97740000D03*
X158850000Y-97740000D03*
X158350000Y-97740000D03*
X157850000Y-97740000D03*
D23*
X158530000Y-106490000D03*
D40*
X145550000Y-102070000D03*
X161196000Y-112624000D03*
D22*
X160850000Y-110515000D03*
X160850000Y-109545000D03*
D18*
X147350000Y-99125000D03*
X147350000Y-100095000D03*
D19*
X163770300Y-112151700D03*
X166020300Y-112151700D03*
D27*
X139611000Y-94843000D03*
X142151000Y-94843000D03*
X144691000Y-94843000D03*
X147231000Y-94843000D03*
X149771000Y-94843000D03*
X152311000Y-94843000D03*
X154851000Y-94843000D03*
X157391000Y-94843000D03*
X159931000Y-94843000D03*
X162471000Y-94843000D03*
X165011000Y-94843000D03*
X167551000Y-94843000D03*
X175195000Y-94857000D03*
X177711000Y-94843000D03*
X175195000Y-97383000D03*
X177711000Y-97383000D03*
X175171000Y-99923000D03*
X177711000Y-99923000D03*
X175195000Y-102463000D03*
X177711000Y-102463000D03*
X175171000Y-105003000D03*
X177711000Y-105003000D03*
X175195000Y-107543000D03*
X177711000Y-107543000D03*
X175171000Y-110083000D03*
X177711000Y-110083000D03*
X175171000Y-112623000D03*
X177711000Y-112623000D03*
D45*
X171511000Y-103893000D03*
X171511000Y-104393000D03*
X171511000Y-104893000D03*
X171511000Y-105393000D03*
X171511000Y-105893000D03*
X171511000Y-106393000D03*
X171511000Y-106893000D03*
X171511000Y-107393000D03*
X173311000Y-107393000D03*
X173311000Y-106893000D03*
X173311000Y-106393000D03*
X173311000Y-105893000D03*
X173311000Y-105393000D03*
X173311000Y-104893000D03*
X173311000Y-104393000D03*
X173311000Y-103893000D03*
D50*
X140400000Y-108495000D03*
X140400000Y-109765000D03*
X140400000Y-111035000D03*
X140400000Y-112305000D03*
X146400000Y-112305000D03*
X146400000Y-111035000D03*
X146400000Y-109765000D03*
X146400000Y-108495000D03*
D51*
X144250000Y-109400000D03*
X142550000Y-109400000D03*
X144250000Y-111400000D03*
X142550000Y-111400000D03*
D18*
X125870300Y-110216700D03*
X125870300Y-111186700D03*
D52*
X126895300Y-110201700D03*
X126895300Y-111201700D03*
X128195300Y-110701700D03*
D21*
X136360300Y-105426700D03*
X137330300Y-105426700D03*
D53*
X127480000Y-103703600D03*
X127480000Y-104353600D03*
X127480000Y-105003600D03*
X127480000Y-105653600D03*
X127480000Y-106303600D03*
D54*
X124820000Y-107916100D03*
D55*
X124820000Y-104166100D03*
X124820000Y-105841100D03*
D54*
X124820000Y-102091100D03*
D56*
X127120000Y-102541100D03*
X127120000Y-107466100D03*
D24*
X150330300Y-113101700D03*
X149360300Y-113101700D03*
D18*
X153495300Y-112241700D03*
X153495300Y-113211700D03*
X151570300Y-112166700D03*
X151570300Y-113136700D03*
D57*
X150347401Y-104948700D03*
X150630244Y-104665857D03*
X150913086Y-104383015D03*
X151195929Y-104100172D03*
X151478772Y-103817329D03*
X151761615Y-103534486D03*
X152044457Y-103251644D03*
X152327300Y-102968801D03*
X150630244Y-105231543D03*
X150913086Y-104948700D03*
X151195929Y-104665857D03*
X151478772Y-104383015D03*
X151761615Y-104100172D03*
X152044457Y-103817329D03*
X152327300Y-103534486D03*
X152610143Y-103251644D03*
X150913086Y-105514385D03*
X151195929Y-105231543D03*
X151478772Y-104948700D03*
X151761615Y-104665857D03*
X152044457Y-104383015D03*
X152327300Y-104100172D03*
X152610143Y-103817329D03*
X152892985Y-103534486D03*
X151195929Y-105797228D03*
X151478772Y-105514385D03*
X151761615Y-105231543D03*
X152044457Y-104948700D03*
X152327300Y-104665857D03*
X152610143Y-104383015D03*
X152892985Y-104100172D03*
X153175828Y-103817329D03*
X151478772Y-106080071D03*
X151761615Y-105797228D03*
X152044457Y-105514385D03*
X152327300Y-105231543D03*
X152610143Y-104948700D03*
X152892985Y-104665857D03*
X153175828Y-104383015D03*
X153458671Y-104100172D03*
X151761615Y-106362914D03*
X152044457Y-106080071D03*
X152327300Y-105797228D03*
X152610143Y-105514385D03*
X152892985Y-105231543D03*
X153175828Y-104948700D03*
X153458671Y-104665857D03*
X153741514Y-104383015D03*
X152044457Y-106645756D03*
X152327300Y-106362914D03*
X152610143Y-106080071D03*
X152892985Y-105797228D03*
X153175828Y-105514385D03*
X153458671Y-105231543D03*
X153741514Y-104948700D03*
X154024356Y-104665857D03*
X152327300Y-106928599D03*
X152610143Y-106645756D03*
X152892985Y-106362914D03*
X153175828Y-106080071D03*
X153458671Y-105797228D03*
X153741514Y-105514385D03*
X154024356Y-105231543D03*
X154307199Y-104948700D03*
M02*
