M48
; DRILL file {KiCad (6.0.7)} date Mon Sep  5 10:31:53 2022
; FORMAT={-:-/ absolute / inch / decimal}
; #@! TF.CreationDate,2022-09-05T10:31:53-04:00
; #@! TF.GenerationSoftware,Kicad,Pcbnew,(6.0.7)
; #@! TF.FileFunction,Plated,1,2,Blind
FMAT,2
INCH
; #@! TA.AperFunction,Plated,Buried,ViaDrill
T1C0.0039
%
G90
G05
T1
X5.9415Y-4.1318
X5.9526Y-4.1207
X5.9637Y-4.1096
X5.9637Y-4.1541
X5.9749Y-4.0984
X5.9749Y-4.1652
X5.986Y-4.0873
X5.986Y-4.1764
X5.9971Y-4.0762
X5.9971Y-4.1875
X6.0083Y-4.0873
X6.0083Y-4.1318
X6.0083Y-4.1764
X6.0194Y-4.0984
X6.0194Y-4.1652
X6.0305Y-4.1096
X6.0305Y-4.1541
X6.0417Y-4.143
X6.0417Y-4.1207
X6.0528Y-4.1318
T0
M30
