G04 #@! TF.GenerationSoftware,KiCad,Pcbnew,(6.0.7)*
G04 #@! TF.CreationDate,2022-09-05T10:31:38-04:00*
G04 #@! TF.ProjectId,quickfeather-board,71756963-6b66-4656-9174-6865722d626f,rev?*
G04 #@! TF.SameCoordinates,Original*
G04 #@! TF.FileFunction,Copper,L1,Top*
G04 #@! TF.FilePolarity,Positive*
%FSLAX46Y46*%
G04 Gerber Fmt 4.6, Leading zero omitted, Abs format (unit mm)*
G04 Created by KiCad (PCBNEW (6.0.7)) date 2022-09-05 10:31:38*
%MOMM*%
%LPD*%
G01*
G04 APERTURE LIST*
G04 Aperture macros list*
%AMRoundRect*
0 Rectangle with rounded corners*
0 $1 Rounding radius*
0 $2 $3 $4 $5 $6 $7 $8 $9 X,Y pos of 4 corners*
0 Add a 4 corners polygon primitive as box body*
4,1,4,$2,$3,$4,$5,$6,$7,$8,$9,$2,$3,0*
0 Add four circle primitives for the rounded corners*
1,1,$1+$1,$2,$3*
1,1,$1+$1,$4,$5*
1,1,$1+$1,$6,$7*
1,1,$1+$1,$8,$9*
0 Add four rect primitives between the rounded corners*
20,1,$1+$1,$2,$3,$4,$5,0*
20,1,$1+$1,$4,$5,$6,$7,0*
20,1,$1+$1,$6,$7,$8,$9,0*
20,1,$1+$1,$8,$9,$2,$3,0*%
G04 Aperture macros list end*
G04 #@! TA.AperFunction,SMDPad,CuDef*
%ADD10R,1.050000X0.600000*%
G04 #@! TD*
G04 #@! TA.AperFunction,SMDPad,CuDef*
%ADD11R,0.900000X0.950000*%
G04 #@! TD*
G04 #@! TA.AperFunction,SMDPad,CuDef*
%ADD12RoundRect,0.147500X-0.172500X0.147500X-0.172500X-0.147500X0.172500X-0.147500X0.172500X0.147500X0*%
G04 #@! TD*
G04 #@! TA.AperFunction,SMDPad,CuDef*
%ADD13R,0.800000X0.800000*%
G04 #@! TD*
G04 #@! TA.AperFunction,SMDPad,CuDef*
%ADD14R,1.100000X1.900000*%
G04 #@! TD*
G04 #@! TA.AperFunction,SMDPad,CuDef*
%ADD15RoundRect,0.147500X-0.147500X-0.172500X0.147500X-0.172500X0.147500X0.172500X-0.147500X0.172500X0*%
G04 #@! TD*
G04 #@! TA.AperFunction,SMDPad,CuDef*
%ADD16RoundRect,0.147500X0.172500X-0.147500X0.172500X0.147500X-0.172500X0.147500X-0.172500X-0.147500X0*%
G04 #@! TD*
G04 #@! TA.AperFunction,SMDPad,CuDef*
%ADD17C,1.000000*%
G04 #@! TD*
G04 #@! TA.AperFunction,SMDPad,CuDef*
%ADD18RoundRect,0.147500X0.147500X0.172500X-0.147500X0.172500X-0.147500X-0.172500X0.147500X-0.172500X0*%
G04 #@! TD*
G04 #@! TA.AperFunction,SMDPad,CuDef*
%ADD19R,0.300000X0.300000*%
G04 #@! TD*
G04 #@! TA.AperFunction,SMDPad,CuDef*
%ADD20R,0.800000X0.600000*%
G04 #@! TD*
G04 #@! TA.AperFunction,ComponentPad*
%ADD21C,1.676400*%
G04 #@! TD*
G04 #@! TA.AperFunction,SMDPad,CuDef*
%ADD22R,1.500000X3.400000*%
G04 #@! TD*
G04 #@! TA.AperFunction,SMDPad,CuDef*
%ADD23R,1.000000X3.500000*%
G04 #@! TD*
G04 #@! TA.AperFunction,SMDPad,CuDef*
%ADD24R,2.790000X0.740000*%
G04 #@! TD*
G04 #@! TA.AperFunction,SMDPad,CuDef*
%ADD25R,0.900000X1.000000*%
G04 #@! TD*
G04 #@! TA.AperFunction,SMDPad,CuDef*
%ADD26R,0.350000X0.350000*%
G04 #@! TD*
G04 #@! TA.AperFunction,SMDPad,CuDef*
%ADD27R,1.600000X1.100000*%
G04 #@! TD*
G04 #@! TA.AperFunction,SMDPad,CuDef*
%ADD28R,0.550000X0.250000*%
G04 #@! TD*
G04 #@! TA.AperFunction,SMDPad,CuDef*
%ADD29R,0.600000X0.800000*%
G04 #@! TD*
G04 #@! TA.AperFunction,SMDPad,CuDef*
%ADD30R,0.650000X0.250000*%
G04 #@! TD*
G04 #@! TA.AperFunction,SMDPad,CuDef*
%ADD31R,0.250000X0.650000*%
G04 #@! TD*
G04 #@! TA.AperFunction,ComponentPad*
%ADD32C,1.524000*%
G04 #@! TD*
G04 #@! TA.AperFunction,SMDPad,CuDef*
%ADD33R,0.600000X0.300000*%
G04 #@! TD*
G04 #@! TA.AperFunction,SMDPad,CuDef*
%ADD34R,0.300000X0.600000*%
G04 #@! TD*
G04 #@! TA.AperFunction,SMDPad,CuDef*
%ADD35R,0.300000X0.800000*%
G04 #@! TD*
G04 #@! TA.AperFunction,ComponentPad*
%ADD36C,3.302000*%
G04 #@! TD*
G04 #@! TA.AperFunction,SMDPad,CuDef*
%ADD37R,0.800000X0.300000*%
G04 #@! TD*
G04 #@! TA.AperFunction,SMDPad,CuDef*
%ADD38R,0.750000X0.450000*%
G04 #@! TD*
G04 #@! TA.AperFunction,ComponentPad*
%ADD39C,2.060000*%
G04 #@! TD*
G04 #@! TA.AperFunction,SMDPad,CuDef*
%ADD40R,0.800000X1.000000*%
G04 #@! TD*
G04 #@! TA.AperFunction,SMDPad,CuDef*
%ADD41R,1.500000X0.500000*%
G04 #@! TD*
G04 #@! TA.AperFunction,SMDPad,CuDef*
%ADD42R,1.700000X2.000000*%
G04 #@! TD*
G04 #@! TA.AperFunction,SMDPad,CuDef*
%ADD43R,0.510000X0.400000*%
G04 #@! TD*
G04 #@! TA.AperFunction,SMDPad,CuDef*
%ADD44R,1.380000X0.450000*%
G04 #@! TD*
G04 #@! TA.AperFunction,SMDPad,CuDef*
%ADD45R,1.900000X2.375000*%
G04 #@! TD*
G04 #@! TA.AperFunction,SMDPad,CuDef*
%ADD46R,1.900000X1.175000*%
G04 #@! TD*
G04 #@! TA.AperFunction,SMDPad,CuDef*
%ADD47R,2.100000X1.475000*%
G04 #@! TD*
G04 #@! TA.AperFunction,BGAPad,CuDef*
%ADD48C,0.240000*%
G04 #@! TD*
G04 #@! TA.AperFunction,ViaPad*
%ADD49C,0.500000*%
G04 #@! TD*
G04 #@! TA.AperFunction,ViaPad*
%ADD50C,0.240000*%
G04 #@! TD*
G04 #@! TA.AperFunction,Conductor*
%ADD51C,0.150000*%
G04 #@! TD*
G04 #@! TA.AperFunction,Conductor*
%ADD52C,0.250000*%
G04 #@! TD*
G04 #@! TA.AperFunction,Conductor*
%ADD53C,0.075000*%
G04 #@! TD*
G04 #@! TA.AperFunction,Conductor*
%ADD54C,0.200000*%
G04 #@! TD*
G04 #@! TA.AperFunction,Conductor*
%ADD55C,0.300000*%
G04 #@! TD*
G04 APERTURE END LIST*
D10*
X134085300Y-105676700D03*
X134085300Y-104726700D03*
X134085300Y-103776700D03*
X131385300Y-103776700D03*
X131385300Y-105676700D03*
D11*
X128175000Y-99426700D03*
X125025000Y-99426700D03*
D12*
X135400000Y-104975000D03*
X135400000Y-105945000D03*
D13*
X139680000Y-103730000D03*
X138180000Y-103730000D03*
D14*
X154025000Y-97430000D03*
X156435000Y-97430000D03*
D15*
X155805000Y-99210000D03*
X156775000Y-99210000D03*
D16*
X148430000Y-101135000D03*
X148430000Y-100165000D03*
D15*
X137885000Y-113110000D03*
X138855000Y-113110000D03*
D12*
X150470300Y-111066700D03*
X150470300Y-112036700D03*
X148220000Y-108895000D03*
X148220000Y-109865000D03*
D17*
X148160000Y-96710000D03*
X147140000Y-97720000D03*
D12*
X148250000Y-111035000D03*
X148250000Y-112005000D03*
D18*
X145796000Y-103723000D03*
X144826000Y-103723000D03*
D16*
X148300000Y-99085000D03*
X148300000Y-98115000D03*
X140980000Y-103330000D03*
X140980000Y-102360000D03*
D19*
X129875000Y-104800000D03*
X129875000Y-104100000D03*
X129025000Y-104450000D03*
D18*
X130110300Y-105826700D03*
X129140300Y-105826700D03*
D15*
X145005000Y-97670000D03*
X145975000Y-97670000D03*
D16*
X152660000Y-97635000D03*
X152660000Y-96665000D03*
D18*
X150325000Y-99230000D03*
X149355000Y-99230000D03*
D15*
X158715000Y-103520000D03*
X159685000Y-103520000D03*
D20*
X149650000Y-98150000D03*
X149650000Y-96750000D03*
D18*
X145800000Y-106320000D03*
X144830000Y-106320000D03*
D20*
X151040000Y-98150000D03*
X151040000Y-96750000D03*
D15*
X156625000Y-108590000D03*
X157595000Y-108590000D03*
D12*
X162720000Y-99185000D03*
X162720000Y-100155000D03*
D21*
X167537000Y-115187000D03*
X164997000Y-115187000D03*
X162457000Y-115187000D03*
X159917000Y-115187000D03*
X157377000Y-115187000D03*
X154837000Y-115187000D03*
X152297000Y-115187000D03*
X149757000Y-115187000D03*
X147217000Y-115187000D03*
X144677000Y-115187000D03*
X142137000Y-115187000D03*
X139597000Y-115187000D03*
X137047000Y-115187000D03*
X134507000Y-115187000D03*
X131967000Y-115187000D03*
X129427000Y-115187000D03*
D22*
X130419100Y-95350000D03*
X137119100Y-95350000D03*
D23*
X132769100Y-100900000D03*
X134769100Y-100900000D03*
D18*
X139685000Y-102420000D03*
X138715000Y-102420000D03*
D24*
X169195000Y-110083600D03*
X165125000Y-110083600D03*
X169195000Y-108813600D03*
X165125000Y-108813600D03*
X169195000Y-107543600D03*
X165125000Y-107543600D03*
X169195000Y-106273600D03*
X165125000Y-106273600D03*
X169195000Y-105003600D03*
X165125000Y-105003600D03*
D18*
X162875000Y-108740000D03*
X161905000Y-108740000D03*
X143355000Y-97790000D03*
X142385000Y-97790000D03*
D12*
X159570000Y-105725000D03*
X159570000Y-106695000D03*
D25*
X133880000Y-107650000D03*
X133880000Y-109250000D03*
X129780000Y-107650000D03*
X129780000Y-109250000D03*
D15*
X142385000Y-99850000D03*
X143355000Y-99850000D03*
D26*
X143675000Y-100810000D03*
X143675000Y-101460000D03*
X143675000Y-102110000D03*
X143675000Y-102760000D03*
X142225000Y-102760000D03*
X142225000Y-102110000D03*
X142225000Y-101460000D03*
X142225000Y-100810000D03*
D27*
X138380000Y-109830000D03*
X138380000Y-111630000D03*
D16*
X135390000Y-107935000D03*
X135390000Y-106965000D03*
D28*
X136935000Y-106650000D03*
X136935000Y-107150000D03*
X136935000Y-107650000D03*
X136935000Y-108150000D03*
X138285000Y-108150000D03*
X138285000Y-107650000D03*
X138285000Y-107150000D03*
X138285000Y-106650000D03*
D16*
X135380000Y-111865000D03*
X135380000Y-110895000D03*
X135400000Y-109925000D03*
X135400000Y-108955000D03*
D29*
X139750000Y-105200000D03*
X138350000Y-105200000D03*
D20*
X136680000Y-111880000D03*
X136680000Y-110480000D03*
X129290000Y-102930000D03*
X129290000Y-101530000D03*
D18*
X143345000Y-98900000D03*
X142375000Y-98900000D03*
D16*
X147480000Y-102055000D03*
X147480000Y-101085000D03*
D19*
X166400000Y-103565000D03*
X167100000Y-103565000D03*
X166750000Y-102715000D03*
D29*
X135490000Y-103720000D03*
X136890000Y-103720000D03*
D12*
X149360000Y-111055000D03*
X149360000Y-112025000D03*
D16*
X159560000Y-108625000D03*
X159560000Y-107655000D03*
D12*
X168380000Y-111615000D03*
X168380000Y-112585000D03*
X124800000Y-110205000D03*
X124800000Y-111175000D03*
X158520000Y-107645000D03*
X158520000Y-108615000D03*
D30*
X143500000Y-105145000D03*
X143500000Y-104750000D03*
X143500000Y-104350000D03*
X143500000Y-103950000D03*
D31*
X142800000Y-103800000D03*
D30*
X142100000Y-103950000D03*
X142100000Y-104350000D03*
X142100000Y-104750000D03*
X142100000Y-105145000D03*
D31*
X142800000Y-105240000D03*
D16*
X140901000Y-105678000D03*
X140901000Y-104708000D03*
X143841000Y-106978000D03*
X143841000Y-106008000D03*
D15*
X141696000Y-106623000D03*
X142666000Y-106623000D03*
D32*
X167551000Y-97383000D03*
X167531000Y-99923000D03*
D16*
X167270300Y-112586700D03*
X167270300Y-111616700D03*
D25*
X133880000Y-111350000D03*
X133880000Y-112950000D03*
X129780000Y-111350000D03*
X129780000Y-112950000D03*
D33*
X146130000Y-99940000D03*
X146130000Y-99440000D03*
X146130000Y-98940000D03*
X144630000Y-98940000D03*
X144630000Y-99440000D03*
X144630000Y-99940000D03*
D34*
X164140000Y-103510000D03*
X164640000Y-103510000D03*
X165140000Y-103510000D03*
X165140000Y-102010000D03*
X164640000Y-102010000D03*
X164140000Y-102010000D03*
X161590000Y-102980000D03*
X162090000Y-102980000D03*
X162590000Y-102980000D03*
X162590000Y-101480000D03*
X162090000Y-101480000D03*
X161590000Y-101480000D03*
D32*
X165011100Y-97383600D03*
X164991100Y-99923600D03*
D16*
X162730000Y-98185000D03*
X162730000Y-97215000D03*
D18*
X145955000Y-96750000D03*
X144985000Y-96750000D03*
D15*
X143015000Y-96740000D03*
X143985000Y-96740000D03*
D18*
X142025000Y-96750000D03*
X141055000Y-96750000D03*
D35*
X155240000Y-112160000D03*
X155740000Y-112160000D03*
X156240000Y-112160000D03*
X156740000Y-112160000D03*
X157240000Y-112160000D03*
X157740000Y-112160000D03*
X158240000Y-112160000D03*
X158740000Y-112160000D03*
X158740000Y-110360000D03*
X158240000Y-110360000D03*
X157740000Y-110360000D03*
X157240000Y-110360000D03*
X156740000Y-110360000D03*
X156240000Y-110360000D03*
X155740000Y-110360000D03*
X155240000Y-110360000D03*
D36*
X125655100Y-96089600D03*
X125655100Y-113869600D03*
X171375100Y-113869600D03*
X171375100Y-96089600D03*
D37*
X171511000Y-98593000D03*
X171511000Y-99093000D03*
X171511000Y-99593000D03*
X171511000Y-100093000D03*
X171511000Y-100593000D03*
X171511000Y-101093000D03*
X171511000Y-101593000D03*
X171511000Y-102093000D03*
X173311000Y-102093000D03*
X173311000Y-101593000D03*
X173311000Y-101093000D03*
X173311000Y-100593000D03*
X173311000Y-100093000D03*
X173311000Y-99593000D03*
X173311000Y-99093000D03*
X173311000Y-98593000D03*
D38*
X160840000Y-107170000D03*
X160840000Y-106470000D03*
X162540000Y-107170000D03*
X162540000Y-106460000D03*
D39*
X161690000Y-104980000D03*
D18*
X156815000Y-100260000D03*
X155845000Y-100260000D03*
X160135000Y-102250000D03*
X159165000Y-102250000D03*
D19*
X162730000Y-109745000D03*
X162030000Y-109745000D03*
X162380000Y-110595000D03*
D40*
X140700000Y-98380000D03*
X140700000Y-100880000D03*
X139300000Y-100880000D03*
X139300000Y-98380000D03*
D35*
X157850000Y-99540000D03*
X158350000Y-99540000D03*
X158850000Y-99540000D03*
X159350000Y-99540000D03*
X159850000Y-99540000D03*
X160350000Y-99540000D03*
X160850000Y-99540000D03*
X161350000Y-99540000D03*
X161350000Y-97740000D03*
X160850000Y-97740000D03*
X160350000Y-97740000D03*
X159850000Y-97740000D03*
X159350000Y-97740000D03*
X158850000Y-97740000D03*
X158350000Y-97740000D03*
X157850000Y-97740000D03*
D17*
X158530000Y-106490000D03*
D32*
X145550000Y-102070000D03*
X161196000Y-112624000D03*
D16*
X160850000Y-110515000D03*
X160850000Y-109545000D03*
D12*
X147350000Y-99125000D03*
X147350000Y-100095000D03*
D13*
X163770300Y-112151700D03*
X166020300Y-112151700D03*
D21*
X139611000Y-94843000D03*
X142151000Y-94843000D03*
X144691000Y-94843000D03*
X147231000Y-94843000D03*
X149771000Y-94843000D03*
X152311000Y-94843000D03*
X154851000Y-94843000D03*
X157391000Y-94843000D03*
X159931000Y-94843000D03*
X162471000Y-94843000D03*
X165011000Y-94843000D03*
X167551000Y-94843000D03*
X175195000Y-94857000D03*
X177711000Y-94843000D03*
X175195000Y-97383000D03*
X177711000Y-97383000D03*
X175171000Y-99923000D03*
X177711000Y-99923000D03*
X175195000Y-102463000D03*
X177711000Y-102463000D03*
X175171000Y-105003000D03*
X177711000Y-105003000D03*
X175195000Y-107543000D03*
X177711000Y-107543000D03*
X175171000Y-110083000D03*
X177711000Y-110083000D03*
X175171000Y-112623000D03*
X177711000Y-112623000D03*
D37*
X171511000Y-103893000D03*
X171511000Y-104393000D03*
X171511000Y-104893000D03*
X171511000Y-105393000D03*
X171511000Y-105893000D03*
X171511000Y-106393000D03*
X171511000Y-106893000D03*
X171511000Y-107393000D03*
X173311000Y-107393000D03*
X173311000Y-106893000D03*
X173311000Y-106393000D03*
X173311000Y-105893000D03*
X173311000Y-105393000D03*
X173311000Y-104893000D03*
X173311000Y-104393000D03*
X173311000Y-103893000D03*
D41*
X140400000Y-108495000D03*
X140400000Y-109765000D03*
X140400000Y-111035000D03*
X140400000Y-112305000D03*
X146400000Y-112305000D03*
X146400000Y-111035000D03*
X146400000Y-109765000D03*
X146400000Y-108495000D03*
D42*
X144250000Y-109400000D03*
X142550000Y-109400000D03*
X144250000Y-111400000D03*
X142550000Y-111400000D03*
D12*
X125870300Y-110216700D03*
X125870300Y-111186700D03*
D43*
X126895300Y-110201700D03*
X126895300Y-111201700D03*
X128195300Y-110701700D03*
D15*
X136360300Y-105426700D03*
X137330300Y-105426700D03*
D44*
X127480000Y-103703600D03*
X127480000Y-104353600D03*
X127480000Y-105003600D03*
X127480000Y-105653600D03*
X127480000Y-106303600D03*
D45*
X124820000Y-107916100D03*
D46*
X124820000Y-104166100D03*
X124820000Y-105841100D03*
D45*
X124820000Y-102091100D03*
D47*
X127120000Y-102541100D03*
X127120000Y-107466100D03*
D18*
X150330300Y-113101700D03*
X149360300Y-113101700D03*
D12*
X153495300Y-112241700D03*
X153495300Y-113211700D03*
X151570300Y-112166700D03*
X151570300Y-113136700D03*
D48*
X150347401Y-104948700D03*
X150630244Y-104665857D03*
X150913086Y-104383015D03*
X151195929Y-104100172D03*
X151478772Y-103817329D03*
X151761615Y-103534486D03*
X152044457Y-103251644D03*
X152327300Y-102968801D03*
X150630244Y-105231543D03*
X150913086Y-104948700D03*
X151195929Y-104665857D03*
X151478772Y-104383015D03*
X151761615Y-104100172D03*
X152044457Y-103817329D03*
X152327300Y-103534486D03*
X152610143Y-103251644D03*
X150913086Y-105514385D03*
X151195929Y-105231543D03*
X151478772Y-104948700D03*
X151761615Y-104665857D03*
X152044457Y-104383015D03*
X152327300Y-104100172D03*
X152610143Y-103817329D03*
X152892985Y-103534486D03*
X151195929Y-105797228D03*
X151478772Y-105514385D03*
X151761615Y-105231543D03*
X152044457Y-104948700D03*
X152327300Y-104665857D03*
X152610143Y-104383015D03*
X152892985Y-104100172D03*
X153175828Y-103817329D03*
X151478772Y-106080071D03*
X151761615Y-105797228D03*
X152044457Y-105514385D03*
X152327300Y-105231543D03*
X152610143Y-104948700D03*
X152892985Y-104665857D03*
X153175828Y-104383015D03*
X153458671Y-104100172D03*
X151761615Y-106362914D03*
X152044457Y-106080071D03*
X152327300Y-105797228D03*
X152610143Y-105514385D03*
X152892985Y-105231543D03*
X153175828Y-104948700D03*
X153458671Y-104665857D03*
X153741514Y-104383015D03*
X152044457Y-106645756D03*
X152327300Y-106362914D03*
X152610143Y-106080071D03*
X152892985Y-105797228D03*
X153175828Y-105514385D03*
X153458671Y-105231543D03*
X153741514Y-104948700D03*
X154024356Y-104665857D03*
X152327300Y-106928599D03*
X152610143Y-106645756D03*
X152892985Y-106362914D03*
X153175828Y-106080071D03*
X153458671Y-105797228D03*
X153741514Y-105514385D03*
X154024356Y-105231543D03*
X154307199Y-104948700D03*
D49*
X136470000Y-108800000D03*
X137100000Y-109290000D03*
X131800000Y-102500000D03*
X144606000Y-105755000D03*
X133070300Y-105826700D03*
X168400000Y-113300000D03*
X163250000Y-101500000D03*
D50*
X152610143Y-106080071D03*
D49*
X124165000Y-109540000D03*
X138300000Y-106000000D03*
X167350000Y-102750000D03*
X136880000Y-102710000D03*
X133060000Y-113475000D03*
X133900000Y-110200000D03*
X157397034Y-98401177D03*
X146670000Y-100560000D03*
D50*
X152327300Y-104665857D03*
D49*
X140356951Y-104344008D03*
X160960000Y-102710000D03*
X131800000Y-101700000D03*
X144500000Y-101200000D03*
X165120000Y-101360000D03*
X128580549Y-104689368D03*
X128690000Y-107480000D03*
X130110000Y-101540000D03*
X146710000Y-101760000D03*
X136470000Y-109710000D03*
X126900000Y-111826700D03*
X149566557Y-99776421D03*
X161111000Y-111343000D03*
X127120000Y-108680000D03*
X143950000Y-99840000D03*
X158918311Y-105678077D03*
X162945000Y-105760001D03*
X162970300Y-112151700D03*
X149350000Y-96020000D03*
X140400000Y-113010000D03*
X134680002Y-107270000D03*
X159646770Y-109337044D03*
X162990000Y-104980000D03*
X163592667Y-103407333D03*
X155209800Y-100356700D03*
D50*
X152610143Y-104948700D03*
D49*
X160454984Y-103670000D03*
X169211000Y-104193000D03*
X145259124Y-100850876D03*
X131800000Y-100900000D03*
X152580800Y-101226700D03*
X150300000Y-96080000D03*
X127120000Y-101220000D03*
X151030000Y-95400000D03*
D50*
X152327300Y-102968801D03*
D49*
X128420000Y-101530000D03*
X144205000Y-103463000D03*
X135100000Y-112910000D03*
X135800000Y-112910000D03*
X151760000Y-98810000D03*
X165440000Y-113270000D03*
X141681000Y-105953000D03*
D50*
X152327300Y-105231543D03*
D49*
X141670000Y-101140000D03*
X162900000Y-108100000D03*
X160287067Y-106035511D03*
X149615300Y-104426700D03*
X148305300Y-108176700D03*
X140500000Y-99310000D03*
X149172194Y-100424565D03*
X149424499Y-109842700D03*
X136500000Y-112910000D03*
D50*
X152892985Y-104665857D03*
D49*
X145401000Y-105013000D03*
X137800000Y-102370000D03*
X150925300Y-101596700D03*
D50*
X151195929Y-105231543D03*
D49*
X150920000Y-99320000D03*
X145401000Y-107018000D03*
X154395300Y-102836700D03*
X153648888Y-99462690D03*
X160240000Y-102980000D03*
X160120000Y-110110000D03*
X137200000Y-112910000D03*
X132550000Y-104075000D03*
X148620300Y-113076700D03*
X147680000Y-112590000D03*
X132550000Y-104825000D03*
X154360800Y-100356200D03*
X153447973Y-101183692D03*
X154785300Y-99507200D03*
X153925172Y-101907162D03*
X150159301Y-100638833D03*
X167050000Y-104405000D03*
X150174800Y-102486700D03*
X153712412Y-110269256D03*
X147670000Y-108090000D03*
D50*
X151761615Y-105797228D03*
D49*
X151325300Y-111366700D03*
X147595300Y-111526700D03*
X154005300Y-111322200D03*
X156725300Y-107644488D03*
X157780000Y-109600000D03*
X140895300Y-110360000D03*
X154096383Y-110729657D03*
D50*
X152327300Y-105797228D03*
D49*
X147595300Y-110526700D03*
D50*
X152327300Y-106362914D03*
D49*
X151495300Y-109842700D03*
X156530800Y-102086700D03*
X160350000Y-100350000D03*
X148199500Y-103165200D03*
D50*
X150630244Y-104665857D03*
D49*
X145614424Y-105614031D03*
X141600000Y-102850000D03*
X142781000Y-102823000D03*
X143671000Y-107628000D03*
X145781000Y-107628000D03*
X144801000Y-104775000D03*
X144381000Y-101903000D03*
X161350000Y-100350000D03*
X156387732Y-102668881D03*
X142671000Y-107300522D03*
X144621000Y-107300522D03*
X142930000Y-101815000D03*
X160850000Y-100900000D03*
X146645300Y-106386700D03*
X145625078Y-98456261D03*
X158220000Y-106149958D03*
X155360000Y-98570000D03*
D50*
X153175828Y-104948700D03*
D49*
X151840002Y-96890000D03*
X152259800Y-100715894D03*
X152978211Y-98809500D03*
X146910000Y-96890000D03*
X146791000Y-99603000D03*
X148850000Y-98600000D03*
X139300000Y-104500000D03*
X140160000Y-105120000D03*
X132790000Y-103290000D03*
X131300000Y-103200000D03*
X124050000Y-99440000D03*
X138981000Y-103873000D03*
X126130000Y-99450000D03*
X135800000Y-101200000D03*
X135800000Y-102700000D03*
X140030000Y-99940000D03*
X130265300Y-99926700D03*
X144696611Y-98354044D03*
X135800000Y-101900000D03*
X129210000Y-99440000D03*
D50*
X152044457Y-103817329D03*
D49*
X151585300Y-99446700D03*
X152359502Y-98809500D03*
D50*
X152327300Y-103534486D03*
D49*
X164060000Y-98450000D03*
X141610000Y-98344990D03*
X140140000Y-101730000D03*
X163650010Y-97810000D03*
X164710000Y-98670000D03*
X140670000Y-97530000D03*
D50*
X151195929Y-104665857D03*
D49*
X133990000Y-106620000D03*
X172461000Y-104243000D03*
X141290000Y-107300000D03*
X148560000Y-104310000D03*
X160792135Y-108588809D03*
X148903974Y-108145191D03*
X159745300Y-100716700D03*
X153235300Y-109166700D03*
X168545300Y-103426700D03*
X166570300Y-111051700D03*
X155298321Y-103573617D03*
X141850000Y-113830000D03*
X148965610Y-108757541D03*
X159350000Y-110250000D03*
X158520000Y-109600000D03*
X152215300Y-109842700D03*
X157465300Y-101406700D03*
X158135300Y-104256700D03*
D50*
X153741514Y-104948700D03*
D49*
X158650500Y-104688902D03*
X157570000Y-96730000D03*
D50*
X152327300Y-104100172D03*
D49*
X154665300Y-101446700D03*
X167970000Y-103980000D03*
X128490000Y-105710000D03*
X126620000Y-109540000D03*
X163342721Y-96705637D03*
X148288271Y-105974559D03*
D50*
X151478772Y-104948700D03*
D49*
X172461000Y-102693000D03*
X147815300Y-104406700D03*
X170160479Y-103492479D03*
X172116216Y-109654990D03*
X148658258Y-102740700D03*
D50*
X151761615Y-104665857D03*
D49*
X172411000Y-105243000D03*
X149075300Y-102306700D03*
D50*
X151478772Y-104383015D03*
D49*
X149911243Y-103042643D03*
X172261000Y-105893000D03*
X153856490Y-100032050D03*
D50*
X152044457Y-104383015D03*
D49*
X170011324Y-102245000D03*
X168811000Y-102493000D03*
D50*
X151761615Y-104100172D03*
D49*
X151085467Y-100301200D03*
X157375300Y-105971200D03*
D50*
X152610143Y-104383015D03*
D49*
X155716505Y-109409499D03*
X154894883Y-102326617D03*
X153061203Y-99581131D03*
X152295300Y-113176700D03*
D50*
X152610143Y-103817329D03*
X152892985Y-104100172D03*
D49*
X155770133Y-101021533D03*
D50*
X153175828Y-104383015D03*
D49*
X159123149Y-100872104D03*
X158100000Y-102050000D03*
X157600000Y-100364990D03*
X158361979Y-100364990D03*
X158118368Y-102689768D03*
X170411000Y-99543000D03*
X159500000Y-104555010D03*
D50*
X153458319Y-105231531D03*
D49*
X169886000Y-100043000D03*
X160215300Y-104916700D03*
X157180467Y-104561533D03*
X155000000Y-109500000D03*
D50*
X153458671Y-104665857D03*
X153175828Y-105514385D03*
D49*
X160220039Y-107644990D03*
X173311528Y-102742472D03*
X170211000Y-98593000D03*
X157364779Y-107644990D03*
X172611000Y-103393000D03*
X147100000Y-102725000D03*
D50*
X153458671Y-105797228D03*
D49*
X144320000Y-102820000D03*
X139450000Y-96800000D03*
X155375300Y-106596700D03*
D50*
X152892985Y-105797228D03*
D49*
X170611000Y-100593000D03*
D50*
X153175828Y-106080071D03*
D49*
X144054990Y-98250000D03*
D50*
X152044457Y-105514385D03*
D49*
X148233758Y-101891200D03*
X144280000Y-97550000D03*
X148945300Y-109356700D03*
D50*
X152327300Y-106928599D03*
D49*
X147794800Y-106953500D03*
X156394472Y-109374472D03*
X146695300Y-105396700D03*
X154145300Y-98729502D03*
D50*
X150913086Y-104948700D03*
D49*
X169210019Y-101468283D03*
X162010000Y-97390000D03*
X161225300Y-108069490D03*
D50*
X152892985Y-105231543D03*
D49*
X156144241Y-107792048D03*
X173861000Y-103193000D03*
X173961000Y-102443000D03*
X176411000Y-105543000D03*
X172711000Y-97843000D03*
X137365000Y-106070000D03*
X127395300Y-109526700D03*
X129180000Y-106580000D03*
X128045300Y-109526700D03*
X154575300Y-112474032D03*
D50*
X152610143Y-105514385D03*
D49*
X151955300Y-110942200D03*
D50*
X152044457Y-106080071D03*
X151478772Y-105514385D03*
D49*
X150024002Y-109842700D03*
X150945300Y-112651700D03*
D51*
X160135000Y-102250000D02*
X160580000Y-102250000D01*
X166750000Y-102715000D02*
X167315000Y-102715000D01*
D52*
X125270000Y-102541100D02*
X124820000Y-102091100D01*
D51*
X157397034Y-98602966D02*
X157397034Y-98401177D01*
X158445000Y-108690000D02*
X158520000Y-108615000D01*
X140961000Y-104538000D02*
X141173000Y-104750000D01*
X143940000Y-99850000D02*
X143950000Y-99840000D01*
D52*
X127480000Y-107106100D02*
X127120000Y-107466100D01*
X133070300Y-104934700D02*
X133275000Y-104730000D01*
D51*
X149550000Y-96220000D02*
X149350000Y-96020000D01*
D52*
X133880000Y-110180000D02*
X133900000Y-110200000D01*
D51*
X148430000Y-100125000D02*
X147310000Y-100125000D01*
X144673000Y-103950000D02*
X143500000Y-103950000D01*
D53*
X152705300Y-102590801D02*
X152705300Y-102066700D01*
D51*
X150840000Y-96750000D02*
X150300000Y-96210000D01*
D52*
X127480000Y-106303600D02*
X127480000Y-107106100D01*
X128676100Y-107466100D02*
X128690000Y-107480000D01*
D51*
X144566000Y-103463000D02*
X144205000Y-103463000D01*
X160813661Y-102483661D02*
X160813661Y-102567429D01*
X151040000Y-96750000D02*
X150840000Y-96750000D01*
X140720943Y-104708000D02*
X140356951Y-104344008D01*
X144676000Y-103953000D02*
X144673000Y-103950000D01*
X152660000Y-96665000D02*
X152295000Y-96665000D01*
X144826000Y-103723000D02*
X144566000Y-103463000D01*
X160580000Y-102250000D02*
X160813661Y-102483661D01*
X144393000Y-105145000D02*
X144631000Y-105383000D01*
X168126400Y-105003600D02*
X169195000Y-105003600D01*
D52*
X138350000Y-105950000D02*
X138300000Y-106000000D01*
D51*
X141173000Y-104750000D02*
X142100000Y-104750000D01*
D52*
X147105000Y-100125000D02*
X146670000Y-100560000D01*
D51*
X126900000Y-111175000D02*
X126900000Y-111826700D01*
D52*
X124145000Y-107916100D02*
X124145000Y-109520000D01*
X134985002Y-106965000D02*
X134680002Y-107270000D01*
X127120000Y-108565000D02*
X127235000Y-108680000D01*
D53*
X152705300Y-102066700D02*
X152745300Y-102106700D01*
D51*
X144830000Y-105979000D02*
X144606000Y-105755000D01*
X140901000Y-104708000D02*
X140720943Y-104708000D01*
D52*
X136890000Y-103720000D02*
X136890000Y-102720000D01*
X129290000Y-101530000D02*
X128420000Y-101530000D01*
D51*
X133880000Y-112950000D02*
X133585000Y-112950000D01*
X146105000Y-99940000D02*
X145680000Y-99940000D01*
X160404634Y-103520000D02*
X160454984Y-103570350D01*
X143670000Y-100810000D02*
X144110000Y-100810000D01*
X157350000Y-98650000D02*
X157397034Y-98602966D01*
X144631000Y-105383000D02*
X144631000Y-105730000D01*
X133585000Y-112950000D02*
X133060000Y-113475000D01*
X161063660Y-102817428D02*
X160813661Y-102567429D01*
X126895300Y-111201700D02*
X124826700Y-111201700D01*
X163670334Y-103485000D02*
X163592667Y-103407333D01*
X156790000Y-99210000D02*
X157350000Y-98650000D01*
D52*
X125270000Y-107466100D02*
X124820000Y-107916100D01*
X133880000Y-109250000D02*
X133880000Y-110180000D01*
X130100000Y-101530000D02*
X130110000Y-101540000D01*
D51*
X145680000Y-99940000D02*
X145270000Y-100350000D01*
X142545000Y-101460000D02*
X143195000Y-100810000D01*
X149355000Y-99230000D02*
X149355000Y-99564864D01*
X169195000Y-107543600D02*
X168043600Y-107543600D01*
X152044457Y-104948700D02*
X151761615Y-105231543D01*
X145270000Y-100840000D02*
X145259124Y-100850876D01*
X147280000Y-100095000D02*
X147135000Y-100095000D01*
X168043600Y-107543600D02*
X167520000Y-107020000D01*
X162970300Y-112151700D02*
X163770300Y-112151700D01*
D52*
X124820000Y-107916100D02*
X124820000Y-102091100D01*
D51*
X169195000Y-105003600D02*
X169195000Y-104209000D01*
X167315000Y-102715000D02*
X167350000Y-102750000D01*
D53*
X152745300Y-102106700D02*
X152745300Y-102536700D01*
D51*
X168380000Y-113280000D02*
X168400000Y-113300000D01*
D52*
X136890000Y-102720000D02*
X136880000Y-102710000D01*
D51*
X164140000Y-103485000D02*
X163670334Y-103485000D01*
X169195000Y-104209000D02*
X169211000Y-104193000D01*
X162540000Y-106460000D02*
X162540000Y-106165001D01*
X163245000Y-101505000D02*
X163250000Y-101500000D01*
X158965234Y-105725000D02*
X158918311Y-105678077D01*
X158520000Y-108615000D02*
X158655000Y-108615000D01*
X150300000Y-96210000D02*
X150300000Y-96080000D01*
D52*
X129290000Y-101530000D02*
X130100000Y-101530000D01*
D51*
X143195000Y-100810000D02*
X143670000Y-100810000D01*
X162540000Y-106165001D02*
X162945000Y-105760001D01*
D52*
X148430000Y-100125000D02*
X147105000Y-100125000D01*
D51*
X155306500Y-100260000D02*
X155845000Y-100260000D01*
X167520000Y-107020000D02*
X167520000Y-105610000D01*
X159377044Y-109337044D02*
X159646770Y-109337044D01*
X168380000Y-112585000D02*
X168380000Y-113280000D01*
D52*
X147385000Y-101085000D02*
X146710000Y-101760000D01*
D51*
X144631000Y-105730000D02*
X144606000Y-105755000D01*
X144706000Y-103603000D02*
X144706000Y-103923000D01*
X161590000Y-102955000D02*
X161201232Y-102955000D01*
D52*
X127120000Y-107466100D02*
X127120000Y-108565000D01*
D51*
X149355000Y-99564864D02*
X149566557Y-99776421D01*
X124826700Y-111201700D02*
X124800000Y-111175000D01*
X165135300Y-102030300D02*
X165135300Y-101375300D01*
X129025000Y-104450000D02*
X128819917Y-104450000D01*
X144830000Y-106320000D02*
X144830000Y-105979000D01*
X156775000Y-99210000D02*
X156790000Y-99210000D01*
X155209800Y-100356700D02*
X155306500Y-100260000D01*
X160813661Y-102543416D02*
X160813661Y-102567429D01*
X144706000Y-103923000D02*
X144676000Y-103953000D01*
X145270000Y-100350000D02*
X145270000Y-100840000D01*
X158655000Y-108615000D02*
X159377044Y-109337044D01*
X162380000Y-110595000D02*
X162380000Y-110895000D01*
X140400000Y-112305000D02*
X140400000Y-113010000D01*
X142220000Y-101460000D02*
X142545000Y-101460000D01*
X159570000Y-105725000D02*
X158965234Y-105725000D01*
X143355000Y-99850000D02*
X143940000Y-99850000D01*
X169195000Y-108813600D02*
X169195000Y-107543600D01*
X128819917Y-104450000D02*
X128580549Y-104689368D01*
X144110000Y-100810000D02*
X144500000Y-101200000D01*
X157505000Y-108690000D02*
X158445000Y-108690000D01*
D52*
X127120000Y-102541100D02*
X125270000Y-102541100D01*
X127120000Y-107466100D02*
X128676100Y-107466100D01*
X152705300Y-101351200D02*
X152705300Y-102066700D01*
X138350000Y-105200000D02*
X138350000Y-105950000D01*
X147480000Y-101085000D02*
X147385000Y-101085000D01*
D51*
X162380000Y-110895000D02*
X161932000Y-111343000D01*
X147135000Y-100095000D02*
X146670000Y-100560000D01*
X147310000Y-100125000D02*
X147280000Y-100095000D01*
X167520000Y-105610000D02*
X168126400Y-105003600D01*
X161932000Y-111343000D02*
X161111000Y-111343000D01*
D52*
X152580800Y-101226700D02*
X152705300Y-101351200D01*
X127120000Y-107466100D02*
X125270000Y-107466100D01*
D51*
X152044457Y-104948700D02*
X152327300Y-104665857D01*
D52*
X127120000Y-102541100D02*
X127120000Y-101220000D01*
X135390000Y-106965000D02*
X134985002Y-106965000D01*
D51*
X152295000Y-96665000D02*
X151030000Y-95400000D01*
D52*
X133070300Y-105826700D02*
X133070300Y-104934700D01*
D51*
X161201232Y-102955000D02*
X161063660Y-102817428D01*
D53*
X152327300Y-102968801D02*
X152705300Y-102590801D01*
D51*
X159685000Y-103520000D02*
X160404634Y-103520000D01*
X149550000Y-96750000D02*
X149550000Y-96220000D01*
D52*
X161690000Y-104980000D02*
X162990000Y-104980000D01*
D51*
X143500000Y-105145000D02*
X144393000Y-105145000D01*
X162590000Y-101505000D02*
X163245000Y-101505000D01*
D52*
X133275000Y-104730000D02*
X134050000Y-104730000D01*
X160100000Y-102840000D02*
X160240000Y-102980000D01*
D51*
X139630000Y-99360000D02*
X140430000Y-99360000D01*
X142100000Y-104350000D02*
X141319100Y-104350000D01*
X159409438Y-109823248D02*
X159838248Y-109823248D01*
X141112100Y-105273000D02*
X141111000Y-105273000D01*
D52*
X148430000Y-101095000D02*
X148501759Y-101095000D01*
X154155300Y-102836700D02*
X153825300Y-103166700D01*
D53*
X151761615Y-103534486D02*
X151305300Y-103078171D01*
D51*
X147915000Y-108590000D02*
X148220000Y-108895000D01*
X141406000Y-105678000D02*
X141681000Y-105953000D01*
X140980000Y-103934000D02*
X140980000Y-103330000D01*
D52*
X136054999Y-111884999D02*
X136675001Y-111884999D01*
D51*
X168357000Y-111615000D02*
X167385300Y-112586700D01*
X140520000Y-103000000D02*
X138064292Y-103000000D01*
X143841000Y-106978000D02*
X144161000Y-106978000D01*
X136054999Y-111884999D02*
X136059998Y-111880000D01*
X160122500Y-110107500D02*
X160530000Y-110515000D01*
D52*
X159240000Y-102840000D02*
X160100000Y-102840000D01*
D51*
X140850000Y-103330000D02*
X140520000Y-103000000D01*
X142000000Y-100810000D02*
X142220000Y-100810000D01*
D52*
X138370000Y-111780000D02*
X137960000Y-111780000D01*
X136675001Y-111884999D02*
X136680000Y-111880000D01*
D51*
X160122500Y-110107500D02*
X160120000Y-110110000D01*
X137814812Y-102750520D02*
X137814812Y-102384812D01*
X141696000Y-106623000D02*
X141696000Y-105968000D01*
D52*
X136680000Y-111880000D02*
X138130000Y-111880000D01*
X158715000Y-103365000D02*
X159240000Y-102840000D01*
X137200000Y-112910000D02*
X137685000Y-112910000D01*
X136500000Y-112060000D02*
X136680000Y-111880000D01*
X151085300Y-102326700D02*
X151085300Y-102858171D01*
D51*
X162875000Y-108740000D02*
X162875000Y-108125000D01*
X144161000Y-106978000D02*
X144263479Y-106875521D01*
D52*
X138130000Y-111880000D02*
X138380000Y-111630000D01*
D51*
X141242100Y-105143000D02*
X141112100Y-105273000D01*
X140980000Y-104010900D02*
X140980000Y-103330000D01*
X144833521Y-106875521D02*
X144976000Y-107018000D01*
X142100000Y-103950000D02*
X140996000Y-103950000D01*
D52*
X135573600Y-109925000D02*
X135990000Y-110341400D01*
X138370000Y-111780000D02*
X138370000Y-111730000D01*
D51*
X166020300Y-112151700D02*
X166020300Y-112689700D01*
X138064292Y-103000000D02*
X137814812Y-102750520D01*
D52*
X135800000Y-112910000D02*
X136500000Y-112910000D01*
D51*
X166020300Y-112689700D02*
X165440000Y-113270000D01*
X139300000Y-98380000D02*
X139300000Y-99030000D01*
D53*
X153615300Y-103377857D02*
X153615300Y-103376700D01*
D51*
X141670000Y-101885000D02*
X141670000Y-101140000D01*
D52*
X150925300Y-102166700D02*
X151085300Y-102326700D01*
D51*
X146400000Y-108495000D02*
X146495000Y-108590000D01*
D52*
X136500000Y-112910000D02*
X136500000Y-112060000D01*
D51*
X142220000Y-100015000D02*
X142385000Y-99850000D01*
X141541000Y-105143000D02*
X141242100Y-105143000D01*
X141670000Y-101140000D02*
X142000000Y-100810000D01*
X168380000Y-111615000D02*
X168357000Y-111615000D01*
X141696000Y-105968000D02*
X141681000Y-105953000D01*
D52*
X135399999Y-111884999D02*
X135380000Y-111865000D01*
D51*
X159570000Y-106695000D02*
X159627578Y-106695000D01*
X144976000Y-107018000D02*
X145401000Y-107018000D01*
X145401000Y-107018000D02*
X145401000Y-106571000D01*
D52*
X150925300Y-101596700D02*
X150925300Y-102166700D01*
X135990000Y-110341400D02*
X135990000Y-111820000D01*
D51*
X151085300Y-102858171D02*
X151305300Y-103078171D01*
X141111000Y-105273000D02*
X140901000Y-105483000D01*
X142220000Y-100810000D02*
X142220000Y-100015000D01*
D52*
X154395300Y-102836700D02*
X154155300Y-102836700D01*
D51*
X146495000Y-108590000D02*
X147915000Y-108590000D01*
X139300000Y-99030000D02*
X139630000Y-99360000D01*
D52*
X137685000Y-112910000D02*
X137885000Y-113110000D01*
D51*
X159838248Y-109823248D02*
X160122500Y-110107500D01*
X140901000Y-105483000D02*
X140901000Y-105678000D01*
X168380000Y-111615000D02*
X168380000Y-110898600D01*
X159627578Y-106695000D02*
X160287067Y-106035511D01*
X141895000Y-102110000D02*
X141670000Y-101885000D01*
X140996000Y-103950000D02*
X140980000Y-103934000D01*
X142220000Y-102110000D02*
X141895000Y-102110000D01*
D52*
X135990000Y-111820000D02*
X136054999Y-111884999D01*
D51*
X144263479Y-106875521D02*
X144833521Y-106875521D01*
X160530000Y-110515000D02*
X160850000Y-110515000D01*
X167385300Y-112586700D02*
X167270300Y-112586700D01*
D52*
X148305300Y-108809700D02*
X148220000Y-108895000D01*
D51*
X158761189Y-109174999D02*
X159409438Y-109823248D01*
D53*
X153175828Y-103817329D02*
X153615300Y-103377857D01*
D52*
X136500000Y-112910000D02*
X137200000Y-112910000D01*
D51*
X140980000Y-103330000D02*
X140850000Y-103330000D01*
X140901000Y-105678000D02*
X141406000Y-105678000D01*
X142100000Y-105145000D02*
X141541000Y-105143000D01*
X157304999Y-109174999D02*
X158761189Y-109174999D01*
X156720000Y-108590000D02*
X157304999Y-109174999D01*
D52*
X135100000Y-112910000D02*
X135800000Y-112910000D01*
D51*
X141319100Y-104350000D02*
X140980000Y-104010900D01*
X160721556Y-106470000D02*
X160287067Y-106035511D01*
X137814812Y-102384812D02*
X137800000Y-102370000D01*
X168380000Y-110898600D02*
X169195000Y-110083600D01*
X167270300Y-112586700D02*
X166930300Y-112586700D01*
X166930300Y-112586700D02*
X166495300Y-112151700D01*
X166495300Y-112151700D02*
X166020300Y-112151700D01*
D52*
X150325000Y-99230000D02*
X150830000Y-99230000D01*
D51*
X162875000Y-108125000D02*
X162900000Y-108100000D01*
X156625000Y-108590000D02*
X156720000Y-108590000D01*
X160840000Y-106470000D02*
X160721556Y-106470000D01*
D52*
X148501759Y-101095000D02*
X149172194Y-100424565D01*
X136054999Y-111884999D02*
X135399999Y-111884999D01*
D51*
X145401000Y-106571000D02*
X145652000Y-106320000D01*
D52*
X148305300Y-108176700D02*
X148305300Y-108809700D01*
D51*
X153615300Y-103376700D02*
X153825300Y-103166700D01*
D52*
X158715000Y-103520000D02*
X158715000Y-103365000D01*
X150830000Y-99230000D02*
X150920000Y-99320000D01*
D54*
X132400000Y-104225000D02*
X132550000Y-104075000D01*
D51*
X148620300Y-113076700D02*
X149335300Y-113076700D01*
D54*
X129875000Y-104100000D02*
X130100001Y-104100000D01*
D51*
X128320000Y-104353600D02*
X128573600Y-104100000D01*
D54*
X130664999Y-104280001D02*
X132035001Y-104280001D01*
D51*
X149335300Y-113076700D02*
X149360300Y-113101700D01*
X127480000Y-104353600D02*
X128320000Y-104353600D01*
D54*
X130225001Y-104225000D02*
X130609998Y-104225000D01*
X132035001Y-104280001D02*
X132090002Y-104225000D01*
D51*
X149360000Y-112025000D02*
X149360000Y-113101400D01*
D54*
X130609998Y-104225000D02*
X130664999Y-104280001D01*
D51*
X128573600Y-104100000D02*
X129875000Y-104100000D01*
D54*
X132090002Y-104225000D02*
X132400000Y-104225000D01*
X130100001Y-104100000D02*
X130225001Y-104225000D01*
X130225001Y-104675000D02*
X130423615Y-104675000D01*
D51*
X128376548Y-105114369D02*
X128785631Y-105114369D01*
D54*
X129875000Y-104800000D02*
X130100001Y-104800000D01*
X132276385Y-104675000D02*
X132400000Y-104675000D01*
D51*
X150470000Y-111770000D02*
X150265010Y-111565010D01*
X150470000Y-112065000D02*
X150470000Y-111770000D01*
X148405010Y-111554990D02*
X148250000Y-111710000D01*
D54*
X130423615Y-104675000D02*
X130478607Y-104729992D01*
D51*
X150470300Y-111741700D02*
X150470300Y-112036700D01*
D54*
X130100001Y-104800000D02*
X130225001Y-104675000D01*
D51*
X148250000Y-111710000D02*
X148250000Y-112005000D01*
X148250000Y-112020000D02*
X147680000Y-112590000D01*
D54*
X130478607Y-104729992D02*
X132221393Y-104729992D01*
D51*
X150283590Y-111554990D02*
X150470300Y-111741700D01*
X129100000Y-104800000D02*
X129875000Y-104800000D01*
X128785631Y-105114369D02*
X129100000Y-104800000D01*
D54*
X132221393Y-104729992D02*
X132276385Y-104675000D01*
D51*
X127480000Y-105003600D02*
X128265779Y-105003600D01*
X148250000Y-112005000D02*
X148250000Y-112020000D01*
X148405010Y-111554990D02*
X150283590Y-111554990D01*
D54*
X132400000Y-104675000D02*
X132550000Y-104825000D01*
D51*
X128265779Y-105003600D02*
X128376548Y-105114369D01*
D52*
X135390000Y-107935000D02*
X135390000Y-108945000D01*
X135080000Y-108955000D02*
X134690000Y-109345000D01*
X134690000Y-109345000D02*
X134690000Y-110525000D01*
X135390000Y-108945000D02*
X135400000Y-108955000D01*
X135060000Y-110895000D02*
X135380000Y-110895000D01*
X135390000Y-107935000D02*
X136175000Y-107150000D01*
X135400000Y-108955000D02*
X135080000Y-108955000D01*
X136175000Y-107150000D02*
X136935000Y-107150000D01*
X134690000Y-110525000D02*
X135060000Y-110895000D01*
D55*
X138285000Y-107650000D02*
X138740000Y-107650000D01*
X138740000Y-107650000D02*
X139231000Y-108141000D01*
X139231000Y-109349000D02*
X138900000Y-109680000D01*
X139231000Y-108141000D02*
X139231000Y-109349000D01*
X138900000Y-109680000D02*
X138370000Y-109680000D01*
D52*
X130355000Y-105680000D02*
X130145000Y-105890000D01*
X131350000Y-105680000D02*
X130355000Y-105680000D01*
D51*
X136245000Y-104450000D02*
X135720000Y-104975000D01*
X138170000Y-103730000D02*
X137450000Y-104450000D01*
X135720000Y-104975000D02*
X135400000Y-104975000D01*
X138180000Y-103730000D02*
X138170000Y-103730000D01*
X137450000Y-104450000D02*
X136245000Y-104450000D01*
X154784800Y-99932200D02*
X155082800Y-99932200D01*
X154360800Y-100356200D02*
X154784800Y-99932200D01*
D53*
X152610143Y-103251644D02*
X153115300Y-102746487D01*
D51*
X153115300Y-102756700D02*
X153115300Y-101516365D01*
X153115300Y-101516365D02*
X153447973Y-101183692D01*
X156435000Y-97430000D02*
X156435000Y-98580000D01*
X156435000Y-98580000D02*
X155805000Y-99210000D01*
X155082800Y-99932200D02*
X155805000Y-99210000D01*
X154800000Y-99492500D02*
X154800000Y-98780000D01*
D53*
X153325300Y-103102171D02*
X153325300Y-103096700D01*
D51*
X153925172Y-101907162D02*
X153925172Y-102496828D01*
X154025000Y-98005000D02*
X154025000Y-97430000D01*
D53*
X152892985Y-103534486D02*
X153325300Y-103102171D01*
D51*
X154800000Y-98780000D02*
X154025000Y-98005000D01*
X153820000Y-97635000D02*
X154025000Y-97430000D01*
X153925172Y-102496828D02*
X153325300Y-103096700D01*
X152660000Y-97635000D02*
X153820000Y-97635000D01*
X154785300Y-99507200D02*
X154800000Y-99492500D01*
X165125000Y-108813600D02*
X166670000Y-108813600D01*
X150174800Y-102506200D02*
X151045300Y-103376700D01*
X162375001Y-107674999D02*
X161905000Y-108145000D01*
X166910000Y-108573600D02*
X166910000Y-104760000D01*
X161905000Y-108145000D02*
X161905000Y-108740000D01*
X166670000Y-108813600D02*
X166910000Y-108573600D01*
X164242602Y-108813600D02*
X163104001Y-107674999D01*
D53*
X151045300Y-103383857D02*
X151045300Y-103376700D01*
D51*
X166910000Y-104760000D02*
X167140000Y-104530000D01*
X162030000Y-108865000D02*
X161905000Y-108740000D01*
X150174800Y-102486700D02*
X150174800Y-102506200D01*
X163104001Y-107674999D02*
X162375001Y-107674999D01*
X162030000Y-109745000D02*
X162030000Y-108865000D01*
D53*
X151478772Y-103817329D02*
X151045300Y-103383857D01*
D51*
X165125000Y-108813600D02*
X164242602Y-108813600D01*
X147697000Y-108053000D02*
X141297000Y-108053000D01*
D53*
X152610143Y-106645756D02*
X153051087Y-107086700D01*
D51*
X153712412Y-110269256D02*
X153712412Y-107743812D01*
X153055300Y-107086700D02*
X153051087Y-107086700D01*
X153712412Y-107743812D02*
X153055300Y-107086700D01*
X141297000Y-108053000D02*
X140855000Y-108495000D01*
X154005300Y-111322200D02*
X154009800Y-111326700D01*
X147595300Y-111876700D02*
X147167000Y-112305000D01*
X154009800Y-111326700D02*
X156823300Y-111326700D01*
X147167000Y-112305000D02*
X146400000Y-112305000D01*
X157240000Y-110910000D02*
X157240000Y-110360000D01*
X147595300Y-111526700D02*
X147595300Y-111876700D01*
X156823300Y-111326700D02*
X157240000Y-110910000D01*
X157740000Y-110360000D02*
X157740000Y-109611055D01*
X157740000Y-109611055D02*
X157775523Y-109575532D01*
D53*
X152892985Y-106362914D02*
X153286035Y-106755965D01*
D51*
X140895300Y-110360000D02*
X140895300Y-109851700D01*
X153746770Y-107216700D02*
X153286035Y-106755965D01*
X156725300Y-107644488D02*
X156297512Y-107216700D01*
X156297512Y-107216700D02*
X153746770Y-107216700D01*
X147595300Y-110526700D02*
X147595300Y-110676700D01*
X154336704Y-110969978D02*
X156680022Y-110969978D01*
X147595300Y-110676700D02*
X147237000Y-111035000D01*
X156680022Y-110969978D02*
X156740000Y-110910000D01*
X154096383Y-110729657D02*
X154336704Y-110969978D01*
X156740000Y-110910000D02*
X156740000Y-110360000D01*
X147237000Y-111035000D02*
X146400000Y-111035000D01*
X139390000Y-112870000D02*
X139390000Y-111340000D01*
X139695000Y-111035000D02*
X140400000Y-111035000D01*
X139150000Y-113110000D02*
X139390000Y-112870000D01*
X139390000Y-111340000D02*
X139695000Y-111035000D01*
X138855000Y-113110000D02*
X139150000Y-113110000D01*
X148220000Y-109865000D02*
X146500000Y-109865000D01*
X146500000Y-109865000D02*
X146400000Y-109765000D01*
X150893300Y-110256700D02*
X150470000Y-110680000D01*
X150470000Y-110680000D02*
X150470000Y-111095000D01*
X151495300Y-109842700D02*
X151081300Y-110256700D01*
X151081300Y-110256700D02*
X150893300Y-110256700D01*
X160840000Y-107839002D02*
X160840000Y-107170000D01*
X160054002Y-108625000D02*
X160840000Y-107839002D01*
X159560000Y-108625000D02*
X160054002Y-108625000D01*
X145614424Y-105614031D02*
X145717969Y-105614031D01*
X149495300Y-101766700D02*
X149495300Y-102125659D01*
X140980000Y-102360000D02*
X141110000Y-102360000D01*
X141110000Y-102360000D02*
X141600000Y-102850000D01*
X150265300Y-101146700D02*
X150115300Y-101146700D01*
X151510467Y-100477241D02*
X151241008Y-100746700D01*
X142800000Y-102842000D02*
X142781000Y-102823000D01*
X151241008Y-100746700D02*
X150665300Y-100746700D01*
X147445554Y-103400000D02*
X147680354Y-103165200D01*
X147680354Y-103165200D02*
X148199500Y-103165200D01*
X151510467Y-100461533D02*
X151510467Y-100477241D01*
X148834799Y-103165200D02*
X148199500Y-103165200D01*
X142800000Y-103800000D02*
X142800000Y-102842000D01*
X149500300Y-102499699D02*
X148834799Y-103165200D01*
X160350000Y-99540000D02*
X160350000Y-100350000D01*
X145717969Y-105614031D02*
X146430300Y-104901700D01*
X146430300Y-104901700D02*
X146430300Y-104030659D01*
X156215300Y-102086700D02*
X154909800Y-100781200D01*
X154004599Y-100781200D02*
X153260099Y-100036700D01*
X149495300Y-102125659D02*
X149500300Y-102130659D01*
X153260099Y-100036700D02*
X151935300Y-100036700D01*
X147060959Y-103400000D02*
X147445554Y-103400000D01*
X156530800Y-102086700D02*
X156215300Y-102086700D01*
X146430300Y-104030659D02*
X147060959Y-103400000D01*
X150115300Y-101146700D02*
X149495300Y-101766700D01*
X154909800Y-100781200D02*
X154004599Y-100781200D01*
X142800000Y-103800000D02*
X142800000Y-103080000D01*
X151935300Y-100036700D02*
X151510467Y-100461533D01*
X150665300Y-100746700D02*
X150265300Y-101146700D01*
X149500300Y-102130659D02*
X149500300Y-102499699D01*
X144776000Y-104750000D02*
X144801000Y-104775000D01*
X144314000Y-104750000D02*
X144581000Y-104750000D01*
X143211000Y-106318000D02*
X143211000Y-107124100D01*
X143841000Y-106008000D02*
X143521000Y-106008000D01*
X143211000Y-107124100D02*
X143710450Y-107623550D01*
X148804000Y-107628000D02*
X145781000Y-107628000D01*
X144314000Y-104750000D02*
X144420601Y-104750000D01*
X161350000Y-99540000D02*
X161350000Y-100350000D01*
X143500000Y-104750000D02*
X144314000Y-104750000D01*
X150490771Y-105941229D02*
X148804000Y-107628000D01*
X144420601Y-104750000D02*
X144776000Y-104750000D01*
D53*
X150913086Y-105514385D02*
X150490771Y-105936700D01*
D51*
X144172000Y-102110000D02*
X144385300Y-101896700D01*
X143675450Y-107623550D02*
X143671000Y-107628000D01*
X143675000Y-102110000D02*
X144172000Y-102110000D01*
X143521000Y-106008000D02*
X143211000Y-106318000D01*
X143710450Y-107623550D02*
X143675450Y-107623550D01*
X150490771Y-105936700D02*
X150490771Y-105941229D01*
X160850000Y-99540000D02*
X160850000Y-100900000D01*
X149750300Y-102027106D02*
X149745300Y-102022105D01*
X147095300Y-105597741D02*
X147325300Y-105367741D01*
X149745300Y-101870254D02*
X150218854Y-101396700D01*
X151760467Y-100580795D02*
X151760467Y-100565087D01*
X142930000Y-102345000D02*
X142930000Y-101815000D01*
X150768854Y-100996700D02*
X151344562Y-100996700D01*
X148611746Y-103606700D02*
X148731746Y-103486700D01*
X143345000Y-102760000D02*
X142930000Y-102345000D01*
X150368854Y-101396700D02*
X150768854Y-100996700D01*
X142666000Y-106623000D02*
X142666000Y-107295522D01*
D53*
X150205300Y-105656487D02*
X150205300Y-105656700D01*
D51*
X147095300Y-106346700D02*
X147095300Y-105597741D01*
D53*
X150630244Y-105231543D02*
X150205300Y-105656487D01*
D51*
X154240300Y-101370455D02*
X154240300Y-101622741D01*
X148484000Y-107378000D02*
X150205300Y-105656700D01*
X148731746Y-103486700D02*
X148866852Y-103486700D01*
X147325300Y-103866700D02*
X147585300Y-103606700D01*
X154240300Y-101622741D02*
X154489259Y-101871700D01*
X155590551Y-101871700D02*
X156387732Y-102668881D01*
X142666000Y-107295522D02*
X142671000Y-107300522D01*
X142800000Y-106489000D02*
X142666000Y-106623000D01*
X147585300Y-103606700D02*
X148611746Y-103606700D01*
X147325300Y-105367741D02*
X147325300Y-103866700D01*
X147055300Y-106386700D02*
X147095300Y-106346700D01*
X147246600Y-107378000D02*
X148484000Y-107378000D01*
X142800000Y-105240000D02*
X142800000Y-106489000D01*
X151344562Y-100996700D02*
X151760467Y-100580795D01*
X151760467Y-100565087D02*
X152038854Y-100286700D01*
X146645300Y-106386700D02*
X147055300Y-106386700D01*
X150218854Y-101396700D02*
X150368854Y-101396700D01*
X147095300Y-107226700D02*
X147246600Y-107378000D01*
X154489259Y-101871700D02*
X155590551Y-101871700D01*
X149750300Y-102603252D02*
X149750300Y-102027106D01*
X149745300Y-102022105D02*
X149745300Y-101870254D01*
X143670000Y-102760000D02*
X143345000Y-102760000D01*
X147095300Y-106346700D02*
X147095300Y-107226700D01*
X148866852Y-103486700D02*
X149750300Y-102603252D01*
X152038854Y-100286700D02*
X153156545Y-100286700D01*
X153156545Y-100286700D02*
X154240300Y-101370455D01*
X158520000Y-106530000D02*
X158520000Y-107645000D01*
X146105000Y-99440000D02*
X145814998Y-99440000D01*
X158530000Y-106459958D02*
X158469999Y-106399957D01*
X145510000Y-98571339D02*
X145625078Y-98456261D01*
X145510000Y-99135002D02*
X145510000Y-98670000D01*
X145814998Y-99440000D02*
X145510000Y-99135002D01*
X158530000Y-106490000D02*
X158530000Y-106459958D01*
X158469999Y-106399957D02*
X158220000Y-106149958D01*
X158530000Y-106520000D02*
X158520000Y-106530000D01*
X145510000Y-98670000D02*
X145510000Y-98571339D01*
X158530000Y-106490000D02*
X158530000Y-106520000D01*
X147280000Y-99125000D02*
X147280000Y-98510000D01*
X147280000Y-98510000D02*
X147165001Y-98395001D01*
X146464999Y-98044001D02*
X146464999Y-97335001D01*
X151840002Y-97591102D02*
X151840002Y-96890000D01*
X147390000Y-99085000D02*
X147350000Y-99125000D01*
D53*
X152044457Y-103251644D02*
X151589513Y-102796700D01*
D51*
X147280000Y-99125000D02*
X147305000Y-99150000D01*
X148300000Y-99085000D02*
X147390000Y-99085000D01*
X146464999Y-97335001D02*
X146910000Y-96890000D01*
X152978211Y-98809500D02*
X152978211Y-98729311D01*
X151562392Y-101413302D02*
X151562392Y-102769579D01*
X152259800Y-100715894D02*
X151562392Y-101413302D01*
X147165001Y-98395001D02*
X146815999Y-98395001D01*
X146815999Y-98395001D02*
X146464999Y-98044001D01*
X152978211Y-98729311D02*
X151840002Y-97591102D01*
X151562392Y-102769579D02*
X151589513Y-102796700D01*
X146530000Y-98940000D02*
X146105000Y-98940000D01*
X148300000Y-98115000D02*
X148365000Y-98115000D01*
X146791000Y-99603000D02*
X146791000Y-99201000D01*
X148365000Y-98115000D02*
X148850000Y-98600000D01*
X146791000Y-99201000D02*
X146530000Y-98940000D01*
D52*
X131350000Y-103250000D02*
X131300000Y-103200000D01*
D51*
X136395000Y-106535000D02*
X136510000Y-106650000D01*
D52*
X129290000Y-103320000D02*
X128940000Y-103670000D01*
D51*
X136395000Y-105480000D02*
X136395000Y-106535000D01*
D52*
X130575000Y-103780000D02*
X131350000Y-103780000D01*
X130469999Y-103674999D02*
X130575000Y-103780000D01*
X139680000Y-103730000D02*
X139680000Y-103850000D01*
X124060000Y-99450000D02*
X124050000Y-99440000D01*
X132070000Y-103290000D02*
X132790000Y-103290000D01*
D51*
X137340000Y-106650000D02*
X136935000Y-106650000D01*
D52*
X131350000Y-103780000D02*
X131350000Y-103250000D01*
X139680000Y-103730000D02*
X139040002Y-103730000D01*
X131580000Y-103780000D02*
X132070000Y-103290000D01*
X125025000Y-99450000D02*
X124060000Y-99450000D01*
X128940000Y-103670000D02*
X127513600Y-103670000D01*
X127513600Y-103670000D02*
X127480000Y-103703600D01*
X125025000Y-99450000D02*
X126130000Y-99450000D01*
X131350000Y-103780000D02*
X131580000Y-103780000D01*
X128448601Y-103674999D02*
X130469999Y-103674999D01*
D51*
X136510000Y-106650000D02*
X136935000Y-106650000D01*
X138285000Y-107150000D02*
X137840000Y-107150000D01*
X137840000Y-107150000D02*
X137340000Y-106650000D01*
D52*
X129290000Y-102930000D02*
X129290000Y-103320000D01*
X130265300Y-99926700D02*
X129808900Y-99470300D01*
X129200000Y-99450000D02*
X129210000Y-99440000D01*
D51*
X144655000Y-98395655D02*
X144696611Y-98354044D01*
D52*
X129808900Y-99470300D02*
X128195300Y-99470300D01*
D51*
X144995000Y-97750000D02*
X144995000Y-98055655D01*
D52*
X128195300Y-99470300D02*
X128175000Y-99450000D01*
D51*
X144655000Y-98940000D02*
X144655000Y-98395655D01*
X144995000Y-98055655D02*
X144696611Y-98354044D01*
D52*
X128175000Y-99450000D02*
X129200000Y-99450000D01*
D51*
X151585300Y-99446700D02*
X151585300Y-99356298D01*
X148870000Y-97570000D02*
X147290000Y-97570000D01*
X149550000Y-98150000D02*
X149450000Y-98150000D01*
X150919002Y-98690000D02*
X150090000Y-98690000D01*
X150090000Y-98690000D02*
X149550000Y-98150000D01*
X149450000Y-98150000D02*
X148870000Y-97570000D01*
X147290000Y-97570000D02*
X147140000Y-97720000D01*
X151585300Y-99356298D02*
X150919002Y-98690000D01*
X152359502Y-98809500D02*
X152365300Y-98803702D01*
X150615001Y-97275001D02*
X151040000Y-97700000D01*
X148160000Y-96710000D02*
X148725001Y-97275001D01*
X151860000Y-98150000D02*
X151040000Y-98150000D01*
X152365300Y-98655300D02*
X151860000Y-98150000D01*
X151040000Y-97700000D02*
X151040000Y-98150000D01*
X152365300Y-98803702D02*
X152365300Y-98655300D01*
X148725001Y-97275001D02*
X150615001Y-97275001D01*
X162940000Y-102955000D02*
X163725001Y-102169999D01*
X162590000Y-102955000D02*
X162940000Y-102955000D01*
X143100000Y-98350000D02*
X141615010Y-98350000D01*
X143345000Y-98595000D02*
X143100000Y-98350000D01*
X143345000Y-98800000D02*
X143345000Y-98595000D01*
X141615010Y-98350000D02*
X141610000Y-98344990D01*
X163725001Y-102169999D02*
X163725001Y-98784999D01*
X163725001Y-98784999D02*
X164060000Y-98450000D01*
X163650010Y-97810000D02*
X163475020Y-97984990D01*
X163475020Y-97984990D02*
X163475020Y-98778547D01*
X163475020Y-98778547D02*
X163474991Y-98778576D01*
X161590000Y-101050000D02*
X161860000Y-100780000D01*
X140140000Y-101965000D02*
X139685000Y-102420000D01*
X163474991Y-100515009D02*
X163210000Y-100780000D01*
X163474991Y-98778576D02*
X163474991Y-100515009D01*
X140140000Y-101730000D02*
X140140000Y-101965000D01*
X161860000Y-100780000D02*
X163210000Y-100780000D01*
X161590000Y-101505000D02*
X161590000Y-101050000D01*
X143355000Y-97755000D02*
X142850000Y-97250000D01*
X142850000Y-97250000D02*
X141350000Y-97250000D01*
X141350000Y-97250000D02*
X141070000Y-97530000D01*
X164140000Y-101582000D02*
X164140000Y-102010000D01*
X141070000Y-97530000D02*
X140670000Y-97530000D01*
X164030000Y-101472000D02*
X164140000Y-101582000D01*
X143355000Y-97790000D02*
X143355000Y-97755000D01*
X164030000Y-99350000D02*
X164030000Y-101472000D01*
X164710000Y-98670000D02*
X164030000Y-99350000D01*
X133990000Y-106620000D02*
X133990000Y-107540000D01*
X171511000Y-104393000D02*
X172311000Y-104393000D01*
X172311000Y-104393000D02*
X172461000Y-104243000D01*
X133990000Y-107540000D02*
X133880000Y-107650000D01*
X148903974Y-108078026D02*
X150685300Y-106296700D01*
D53*
X150695300Y-106296700D02*
X150696457Y-106296700D01*
D51*
X159745300Y-100716700D02*
X159850000Y-100612000D01*
X148903974Y-108145191D02*
X148903974Y-108078026D01*
D53*
X150696457Y-106296700D02*
X151195929Y-105797228D01*
D51*
X150685300Y-106296700D02*
X150695300Y-106296700D01*
X159850000Y-100612000D02*
X159850000Y-99540000D01*
X129890000Y-113900000D02*
X131910000Y-113900000D01*
X167400000Y-103565000D02*
X167793332Y-103171668D01*
X129436000Y-115164000D02*
X129436000Y-114354000D01*
X132870000Y-113900000D02*
X141780000Y-113900000D01*
X129436000Y-114354000D02*
X129890000Y-113900000D01*
D53*
X154187829Y-103936700D02*
X154195300Y-103936700D01*
D51*
X167270300Y-111616700D02*
X167270300Y-111226700D01*
X132870000Y-113900000D02*
X132390000Y-113420000D01*
X132390000Y-111930000D02*
X132970000Y-111350000D01*
X154345300Y-103786700D02*
X154195300Y-103936700D01*
X165661400Y-105003600D02*
X165125000Y-105003600D01*
X131910000Y-113900000D02*
X132390000Y-113420000D01*
X154475300Y-103786700D02*
X154345300Y-103786700D01*
X167100000Y-103565000D02*
X167400000Y-103565000D01*
X155298321Y-103573617D02*
X154688383Y-103573617D01*
X132970000Y-111350000D02*
X133880000Y-111350000D01*
X167270300Y-111226700D02*
X167095300Y-111051700D01*
X167095300Y-111051700D02*
X166570300Y-111051700D01*
X154688383Y-103573617D02*
X154475300Y-103786700D01*
X168523364Y-103426700D02*
X168268332Y-103171668D01*
X167100000Y-103565000D02*
X165661400Y-105003600D01*
X168545300Y-103426700D02*
X168523364Y-103426700D01*
X141780000Y-113900000D02*
X141850000Y-113830000D01*
D53*
X153741514Y-104383015D02*
X154187829Y-103936700D01*
D51*
X132390000Y-113420000D02*
X132390000Y-111930000D01*
X167793332Y-103171668D02*
X168268332Y-103171668D01*
X149328974Y-108321232D02*
X149328974Y-108229869D01*
X148965610Y-108684596D02*
X149328974Y-108321232D01*
X158740000Y-110360000D02*
X159240000Y-110360000D01*
X149328974Y-108229869D02*
X151055300Y-106503543D01*
X148965610Y-108757541D02*
X148965610Y-108684596D01*
D53*
X151478772Y-106080071D02*
X151055300Y-106503543D01*
D51*
X159240000Y-110360000D02*
X159350000Y-110250000D01*
D53*
X151625300Y-107064913D02*
X151625300Y-107066700D01*
X152044457Y-106645756D02*
X151625300Y-107064913D01*
D51*
X158240000Y-110360000D02*
X158240000Y-109660000D01*
X151205300Y-108832700D02*
X151205300Y-107486700D01*
X152215300Y-109842700D02*
X151205300Y-108832700D01*
X151205300Y-107486700D02*
X151625300Y-107066700D01*
X158240000Y-109660000D02*
X158454479Y-109445521D01*
X162090000Y-102530000D02*
X162090000Y-102955000D01*
X161880000Y-102320000D02*
X162090000Y-102530000D01*
X153925300Y-103626700D02*
X154245300Y-103306700D01*
D53*
X153458671Y-104100172D02*
X154132143Y-103426700D01*
D51*
X154245300Y-103306700D02*
X154545300Y-103306700D01*
X154545300Y-103306700D02*
X154702883Y-103149117D01*
X161200000Y-102320000D02*
X161880000Y-102320000D01*
X160480000Y-101600000D02*
X161200000Y-102320000D01*
X157948959Y-101600000D02*
X160480000Y-101600000D01*
X157675000Y-101873959D02*
X157948959Y-101600000D01*
X156662883Y-103149117D02*
X157675000Y-102137000D01*
X157675000Y-102137000D02*
X157675000Y-101873959D01*
X154702883Y-103149117D02*
X156662883Y-103149117D01*
X160540000Y-101300000D02*
X161270000Y-102030000D01*
X158135300Y-104256700D02*
X158135300Y-104506700D01*
X157464214Y-101300000D02*
X160540000Y-101300000D01*
X158135300Y-104506700D02*
X157495300Y-105146700D01*
X156025300Y-105146700D02*
X155547406Y-105624594D01*
X161915001Y-102030000D02*
X162090000Y-101855001D01*
X162090000Y-101855001D02*
X162090000Y-101505000D01*
X161270000Y-102030000D02*
X161915001Y-102030000D01*
X157495300Y-105146700D02*
X156025300Y-105146700D01*
D53*
X154024356Y-105231543D02*
X154417406Y-105624594D01*
D51*
X155547406Y-105624594D02*
X154417406Y-105624594D01*
X162690000Y-104040000D02*
X164510000Y-104040000D01*
X164640000Y-103910000D02*
X164640000Y-103485000D01*
X158992000Y-104120000D02*
X160660000Y-104120000D01*
X162280000Y-103630000D02*
X162690000Y-104040000D01*
X161150000Y-103630000D02*
X162280000Y-103630000D01*
X158477566Y-104634434D02*
X158992000Y-104120000D01*
X160660000Y-104120000D02*
X161150000Y-103630000D01*
X164510000Y-104040000D02*
X164640000Y-103910000D01*
X157850000Y-97740000D02*
X157850000Y-97010000D01*
X157850000Y-97010000D02*
X157570000Y-96730000D01*
X145955000Y-96750000D02*
X145955000Y-96119700D01*
X145955000Y-96119700D02*
X147231100Y-94843600D01*
X162020000Y-96020000D02*
X163030000Y-96020000D01*
X164206400Y-94843600D02*
X165011100Y-94843600D01*
X163030000Y-96020000D02*
X164206400Y-94843600D01*
X160850000Y-97190000D02*
X162020000Y-96020000D01*
X160850000Y-97740000D02*
X160850000Y-97190000D01*
X160350000Y-96964700D02*
X162471100Y-94843600D01*
X160350000Y-97740000D02*
X160350000Y-96964700D01*
X157820000Y-96270000D02*
X153737500Y-96270000D01*
X152311100Y-94843600D02*
X153737500Y-96270000D01*
X158350000Y-97740000D02*
X158350000Y-96800000D01*
X158350000Y-96800000D02*
X157820000Y-96270000D01*
X143015000Y-95835000D02*
X144006400Y-94843600D01*
X143015000Y-96740000D02*
X143015000Y-95835000D01*
X144006400Y-94843600D02*
X144691100Y-94843600D01*
X142025000Y-96750000D02*
X142025000Y-94969700D01*
X142025000Y-94969700D02*
X142151100Y-94843600D01*
X159350000Y-96802500D02*
X157391100Y-94843600D01*
X159350000Y-97740000D02*
X159350000Y-96802500D01*
X159850000Y-94924700D02*
X159931100Y-94843600D01*
X159850000Y-97740000D02*
X159850000Y-94924700D01*
X158850000Y-96830000D02*
X158040000Y-96020000D01*
X154851100Y-94843600D02*
X156027500Y-96020000D01*
X158850000Y-97740000D02*
X158850000Y-96830000D01*
X158040000Y-96020000D02*
X156027500Y-96020000D01*
X156740000Y-113807000D02*
X155383000Y-115164000D01*
X155383000Y-115164000D02*
X154846000Y-115164000D01*
X156740000Y-112160000D02*
X156740000Y-113807000D01*
X158240000Y-112710000D02*
X159540000Y-114010000D01*
X161312000Y-114010000D02*
X162466000Y-115164000D01*
X158240000Y-112160000D02*
X158240000Y-112710000D01*
X159540000Y-114010000D02*
X161312000Y-114010000D01*
X151519194Y-114101700D02*
X148288300Y-114101700D01*
X153745289Y-113876711D02*
X151744183Y-113876711D01*
X155240000Y-113232000D02*
X155020300Y-113451700D01*
X154170300Y-113451700D02*
X153745289Y-113876711D01*
X151744183Y-113876711D02*
X151519194Y-114101700D01*
X148288300Y-114101700D02*
X147226000Y-115164000D01*
X155240000Y-112160000D02*
X155240000Y-113232000D01*
X155020300Y-113451700D02*
X154170300Y-113451700D01*
X157240000Y-112160000D02*
X157240000Y-115018000D01*
X157240000Y-115018000D02*
X157386000Y-115164000D01*
X150815136Y-115164000D02*
X149766000Y-115164000D01*
X154248868Y-113726700D02*
X153825769Y-114149799D01*
X155740000Y-112160000D02*
X155740000Y-113407000D01*
X155740000Y-113407000D02*
X155420300Y-113726700D01*
X155420300Y-113726700D02*
X154248868Y-113726700D01*
X151829337Y-114149799D02*
X150815136Y-115164000D01*
X153825769Y-114149799D02*
X151829337Y-114149799D01*
X144686000Y-115164000D02*
X145998300Y-113851700D01*
X153495300Y-113211700D02*
X153080300Y-113626700D01*
X151640626Y-113626700D02*
X151415626Y-113851700D01*
X151415626Y-113851700D02*
X145998300Y-113851700D01*
X153080300Y-113626700D02*
X151640626Y-113626700D01*
X143620300Y-113651700D02*
X142984199Y-114325801D01*
X142984199Y-114325801D02*
X142146000Y-115164000D01*
X151570300Y-113161700D02*
X151130310Y-113601690D01*
X151130310Y-113601690D02*
X143670310Y-113601690D01*
X143670310Y-113601690D02*
X143620300Y-113651700D01*
X153233000Y-115164000D02*
X152306000Y-115164000D01*
X155770300Y-114001700D02*
X154395300Y-114001700D01*
X154395300Y-114001700D02*
X153233000Y-115164000D01*
X156240000Y-112160000D02*
X156240000Y-113532000D01*
X156240000Y-113532000D02*
X155770300Y-114001700D01*
X167180000Y-109573600D02*
X167180000Y-104880000D01*
X161045000Y-109545000D02*
X160850000Y-109545000D01*
X165125000Y-110083600D02*
X166670000Y-110083600D01*
X167490000Y-104570000D02*
X167490000Y-104300000D01*
X162730000Y-109745000D02*
X163241400Y-109745000D01*
X161700000Y-110200000D02*
X161045000Y-109545000D01*
X167490000Y-104300000D02*
X167810000Y-103980000D01*
X162730000Y-109745000D02*
X162655000Y-109745000D01*
X162655000Y-109745000D02*
X162200000Y-110200000D01*
X167180000Y-104880000D02*
X167490000Y-104570000D01*
X166670000Y-110083600D02*
X167180000Y-109573600D01*
X163580000Y-110083600D02*
X163241400Y-109745000D01*
X167810000Y-103980000D02*
X167970000Y-103980000D01*
X162200000Y-110200000D02*
X161700000Y-110200000D01*
X165125000Y-110083600D02*
X163580000Y-110083600D01*
X166534700Y-95860000D02*
X167551100Y-94843600D01*
X163109989Y-96350011D02*
X163600000Y-95860000D01*
X161350000Y-97190000D02*
X162189989Y-96350011D01*
X161350000Y-97740000D02*
X161350000Y-97190000D01*
X163600000Y-95860000D02*
X166534700Y-95860000D01*
X162189989Y-96350011D02*
X163109989Y-96350011D01*
X158740000Y-112160000D02*
X158740000Y-112710000D01*
X159750000Y-113720000D02*
X163562000Y-113720000D01*
X163562000Y-113720000D02*
X165006000Y-115164000D01*
X158740000Y-112710000D02*
X159750000Y-113720000D01*
X157740000Y-112160000D02*
X157740000Y-112790000D01*
X157740000Y-112790000D02*
X159926000Y-114976000D01*
X159926000Y-114976000D02*
X159926000Y-115164000D01*
X126483300Y-109676700D02*
X126620000Y-109540000D01*
X124800000Y-109822000D02*
X124945300Y-109676700D01*
X127480000Y-105653600D02*
X128483600Y-105653600D01*
X124945300Y-109676700D02*
X126483300Y-109676700D01*
X124800000Y-110205000D02*
X124800000Y-109822000D01*
X163342721Y-97059190D02*
X163225010Y-97176901D01*
X163225010Y-98674990D02*
X163224981Y-98675019D01*
X163040000Y-100155000D02*
X162720000Y-100155000D01*
X163224981Y-98675019D02*
X163224981Y-99970019D01*
X163224981Y-99970019D02*
X163040000Y-100155000D01*
X163225010Y-97176901D02*
X163225010Y-98674990D01*
X163342721Y-96705637D02*
X163342721Y-97059190D01*
X145170000Y-99305002D02*
X145170000Y-98281100D01*
X145035002Y-99440000D02*
X145170000Y-99305002D01*
X145781100Y-97670000D02*
X145975000Y-97670000D01*
X145860000Y-97750000D02*
X145965000Y-97750000D01*
X145170000Y-98281100D02*
X145781100Y-97670000D01*
X144655000Y-99440000D02*
X145035002Y-99440000D01*
X144655000Y-99940000D02*
X144655000Y-99440000D01*
X140700000Y-99850000D02*
X140700000Y-100880000D01*
X142375000Y-98800000D02*
X141750000Y-98800000D01*
X141750000Y-98800000D02*
X140700000Y-99850000D01*
X142385000Y-97790000D02*
X141290000Y-97790000D01*
X141290000Y-97790000D02*
X140700000Y-98380000D01*
X139300000Y-100880000D02*
X139300000Y-101835000D01*
X139300000Y-101835000D02*
X138715000Y-102420000D01*
X171511000Y-103243000D02*
X171511000Y-103893000D01*
X172461000Y-102693000D02*
X172061000Y-102693000D01*
X172061000Y-102693000D02*
X171511000Y-103243000D01*
X148715300Y-103856700D02*
X148835300Y-103736700D01*
X170811000Y-104558002D02*
X170811000Y-104093000D01*
X171145998Y-104893000D02*
X170811000Y-104558002D01*
X170461000Y-103743000D02*
X170411000Y-103743000D01*
D53*
X150475300Y-103945229D02*
X150475300Y-103926700D01*
D51*
X170411000Y-103743000D02*
X170160479Y-103492479D01*
X171511000Y-104893000D02*
X171145998Y-104893000D01*
X147815300Y-104406700D02*
X147815300Y-104166700D01*
X147815300Y-104166700D02*
X148125300Y-103856700D01*
X148125300Y-103856700D02*
X148715300Y-103856700D01*
X150285300Y-103736700D02*
X150475300Y-103926700D01*
D53*
X150913086Y-104383015D02*
X150475300Y-103945229D01*
D51*
X148835300Y-103736700D02*
X150285300Y-103736700D01*
X170811000Y-104093000D02*
X170461000Y-103743000D01*
X146181000Y-103723000D02*
X145796000Y-103723000D01*
X147342000Y-103150000D02*
X146754000Y-103150000D01*
X146754000Y-103150000D02*
X146181000Y-103723000D01*
X172261000Y-105393000D02*
X172411000Y-105243000D01*
X171511000Y-105393000D02*
X172261000Y-105393000D01*
X148658258Y-102740700D02*
X147751300Y-102740700D01*
X147751300Y-102740700D02*
X147342000Y-103150000D01*
X147741200Y-102316200D02*
X147480000Y-102055000D01*
X148982108Y-102316200D02*
X147741200Y-102316200D01*
X147480000Y-102055000D02*
X147295000Y-102240000D01*
X148991608Y-102306700D02*
X148982108Y-102316200D01*
X145720000Y-102240000D02*
X145550000Y-102070000D01*
X147295000Y-102240000D02*
X145720000Y-102240000D01*
X149075300Y-102306700D02*
X148991608Y-102306700D01*
X149911243Y-103042643D02*
X150138400Y-103042643D01*
X171511000Y-105893000D02*
X172261000Y-105893000D01*
X150138400Y-103042643D02*
X150755300Y-103659543D01*
D53*
X151195929Y-104100172D02*
X150755300Y-103659543D01*
D51*
X170961000Y-101093000D02*
X169961000Y-102093000D01*
X171511000Y-101093000D02*
X170961000Y-101093000D01*
X169961000Y-102093000D02*
X169961000Y-102194676D01*
X169961000Y-102194676D02*
X170011324Y-102245000D01*
X170511000Y-101993000D02*
X170911000Y-101593000D01*
X168811000Y-102493000D02*
X169060999Y-102742999D01*
X170511000Y-102543000D02*
X170511000Y-101993000D01*
X170911000Y-101593000D02*
X171511000Y-101593000D01*
X169060999Y-102742999D02*
X170311001Y-102742999D01*
X170311001Y-102742999D02*
X170511000Y-102543000D01*
D52*
X155740000Y-109432994D02*
X155716505Y-109409499D01*
X155740000Y-110360000D02*
X155740000Y-109432994D01*
D51*
X151570300Y-112191700D02*
X151570300Y-112226700D01*
X151570300Y-112226700D02*
X152295300Y-112951700D01*
X152295300Y-112951700D02*
X152295300Y-113176700D01*
X156001676Y-100789990D02*
X158560010Y-100789990D01*
X158850000Y-99540000D02*
X158850000Y-100500000D01*
X158850000Y-100500000D02*
X158560010Y-100789990D01*
X155770133Y-101021533D02*
X156001676Y-100789990D01*
X159119999Y-100868954D02*
X159119999Y-100320001D01*
X159350000Y-100090000D02*
X159350000Y-99540000D01*
X159119999Y-100320001D02*
X159350000Y-100090000D01*
X159123149Y-100872104D02*
X159119999Y-100868954D01*
X158100000Y-102078427D02*
X157439734Y-102738693D01*
X157680000Y-100260000D02*
X157110000Y-100260000D01*
X157850000Y-98990000D02*
X158390000Y-98450000D01*
X157110000Y-100260000D02*
X156815000Y-100260000D01*
X158100000Y-102050000D02*
X158100000Y-102078427D01*
X157850000Y-99540000D02*
X157850000Y-100090000D01*
D53*
X154024356Y-104665857D02*
X154463513Y-104226700D01*
D51*
X154911249Y-104016700D02*
X154891248Y-104036700D01*
X162145000Y-98450000D02*
X162410000Y-98185000D01*
X158390000Y-98450000D02*
X162145000Y-98450000D01*
X157850000Y-100090000D02*
X157680000Y-100260000D01*
X162410000Y-98185000D02*
X162730000Y-98185000D01*
X157439734Y-102738693D02*
X157439734Y-103106712D01*
X156529746Y-104016700D02*
X154911249Y-104016700D01*
X154891248Y-104036700D02*
X154653513Y-104036700D01*
X157850000Y-99540000D02*
X157850000Y-98990000D01*
X154653513Y-104036700D02*
X154463513Y-104226700D01*
X157439734Y-103106712D02*
X156529746Y-104016700D01*
X158558136Y-102250000D02*
X159165000Y-102250000D01*
X158118368Y-102689768D02*
X158558136Y-102250000D01*
X158350000Y-99540000D02*
X158350000Y-100353011D01*
X156513299Y-104386700D02*
X154875300Y-104386700D01*
X162300000Y-98750000D02*
X158590000Y-98750000D01*
D53*
X154749199Y-104506700D02*
X154755300Y-104506700D01*
D51*
X158590000Y-98750000D02*
X158350000Y-98990000D01*
X158118368Y-102781631D02*
X156513299Y-104386700D01*
D53*
X154307199Y-104948700D02*
X154749199Y-104506700D01*
D51*
X162720000Y-99170000D02*
X162300000Y-98750000D01*
X154875300Y-104386700D02*
X154755300Y-104506700D01*
X162720000Y-99185000D02*
X162720000Y-99170000D01*
X158350000Y-100353011D02*
X158361979Y-100364990D01*
X158118368Y-102689768D02*
X158118368Y-102781631D01*
X158350000Y-98990000D02*
X158350000Y-99540000D01*
X170461000Y-99593000D02*
X170411000Y-99543000D01*
X159426990Y-104555010D02*
X158435300Y-105546700D01*
X171511000Y-99593000D02*
X170461000Y-99593000D01*
X154325300Y-106116700D02*
X154175300Y-105966700D01*
X156345300Y-105546700D02*
X155775300Y-106116700D01*
X159500000Y-104555010D02*
X159426990Y-104555010D01*
X155775300Y-106116700D02*
X154325300Y-106116700D01*
D53*
X153741514Y-105514385D02*
X154175300Y-105948171D01*
X154175300Y-105948171D02*
X154175300Y-105966700D01*
D51*
X158435300Y-105546700D02*
X156345300Y-105546700D01*
X169936000Y-100093000D02*
X169886000Y-100043000D01*
X171511000Y-100093000D02*
X169936000Y-100093000D01*
X155240000Y-109740000D02*
X155000000Y-109500000D01*
X155240000Y-110360000D02*
X155240000Y-109740000D01*
X172611000Y-103293000D02*
X173236521Y-102667479D01*
X172611000Y-103393000D02*
X172611000Y-103293000D01*
X159560000Y-107655000D02*
X160210029Y-107655000D01*
X160210029Y-107655000D02*
X160220039Y-107644990D01*
X171511000Y-98593000D02*
X170211000Y-98593000D01*
X139500000Y-96750000D02*
X139450000Y-96800000D01*
X146545000Y-102725000D02*
X146207000Y-103063000D01*
X146207000Y-103063000D02*
X144788010Y-103063000D01*
X144788010Y-103063000D02*
X144615010Y-102890000D01*
X141055000Y-96750000D02*
X139500000Y-96750000D01*
X144615010Y-102890000D02*
X144530000Y-102890000D01*
X147100000Y-102725000D02*
X146545000Y-102725000D01*
X171511000Y-100593000D02*
X170611000Y-100593000D01*
X143854999Y-98050009D02*
X144054990Y-98250000D01*
X143985000Y-97060000D02*
X143854999Y-97190001D01*
X143985000Y-96740000D02*
X143985000Y-97060000D01*
X143854999Y-97190001D02*
X143854999Y-98050009D01*
X144280000Y-97550000D02*
X144280000Y-97455000D01*
X144280000Y-97455000D02*
X144985000Y-96750000D01*
X150685300Y-107439229D02*
X151327829Y-106796700D01*
X150685300Y-110064700D02*
X150685300Y-107439229D01*
X150221800Y-110528200D02*
X150685300Y-110064700D01*
X149360000Y-111055000D02*
X149360000Y-110712000D01*
X149543800Y-110528200D02*
X150221800Y-110528200D01*
X149360000Y-110712000D02*
X149543800Y-110528200D01*
D53*
X151761615Y-106362914D02*
X151327829Y-106796700D01*
D51*
X148945300Y-110101700D02*
X148620300Y-110426700D01*
X148945300Y-109356700D02*
X148945300Y-110101700D01*
X148250000Y-110556400D02*
X148250000Y-111035000D01*
X148620300Y-110426700D02*
X148379700Y-110426700D01*
X148379700Y-110426700D02*
X148250000Y-110556400D01*
X156394472Y-109374472D02*
X156240000Y-109528944D01*
D53*
X149929401Y-105366700D02*
X149925300Y-105366700D01*
D51*
X148317040Y-106431260D02*
X148860740Y-106431260D01*
X148860740Y-106431260D02*
X149925300Y-105366700D01*
X147794800Y-106953500D02*
X148317040Y-106431260D01*
X156240000Y-109528944D02*
X156240000Y-110360000D01*
D53*
X150347401Y-104948700D02*
X149929401Y-105366700D01*
D51*
X169210019Y-101468283D02*
X168385999Y-102292303D01*
X170861000Y-103043000D02*
X171511000Y-102393000D01*
X168385999Y-102677399D02*
X168751600Y-103043000D01*
X168751600Y-103043000D02*
X170861000Y-103043000D01*
X168385999Y-102292303D02*
X168385999Y-102677399D01*
X171511000Y-102393000D02*
X171511000Y-102093000D01*
X162730000Y-97215000D02*
X162185000Y-97215000D01*
X162185000Y-97215000D02*
X162010000Y-97390000D01*
X168964000Y-101040000D02*
X167000000Y-101040000D01*
X165115002Y-104300000D02*
X163624299Y-104300000D01*
X171511000Y-99093000D02*
X170161000Y-99093000D01*
X165810000Y-103605002D02*
X165115002Y-104300000D01*
X169461000Y-100543000D02*
X168964000Y-101040000D01*
X170161000Y-99093000D02*
X169461000Y-99793000D01*
X161225300Y-107959700D02*
X162015000Y-107170000D01*
X163420000Y-106815000D02*
X163065000Y-107170000D01*
X167000000Y-101040000D02*
X165810000Y-102230000D01*
X163624299Y-104300000D02*
X163420000Y-104504299D01*
X162015000Y-107170000D02*
X162540000Y-107170000D01*
X165810000Y-102230000D02*
X165810000Y-103605002D01*
X161225300Y-108069490D02*
X161225300Y-107959700D01*
X169461000Y-99793000D02*
X169461000Y-100543000D01*
X163420000Y-104504299D02*
X163420000Y-106815000D01*
X163065000Y-107170000D02*
X162540000Y-107170000D01*
X173311000Y-105893000D02*
X173861000Y-105893000D01*
X173861000Y-105893000D02*
X174011000Y-106043000D01*
X174011000Y-106043000D02*
X174011000Y-109243000D01*
X174011000Y-109243000D02*
X175011000Y-110243000D01*
X176461000Y-101093000D02*
X176561000Y-101093000D01*
X176451000Y-101103000D02*
X176461000Y-101093000D01*
X173321000Y-101103000D02*
X176451000Y-101103000D01*
X173311000Y-101093000D02*
X173321000Y-101103000D01*
X176561000Y-101093000D02*
X177811000Y-99843000D01*
X173311000Y-99593000D02*
X173861000Y-99593000D01*
X174311000Y-99143000D02*
X174311000Y-98143000D01*
X174311000Y-98143000D02*
X174811000Y-97643000D01*
X173861000Y-99593000D02*
X174311000Y-99143000D01*
X173311000Y-98593000D02*
X173711000Y-98193000D01*
X173711000Y-95643000D02*
X174311000Y-95043000D01*
X174311000Y-95043000D02*
X175311000Y-95043000D01*
X173711000Y-98193000D02*
X173711000Y-95643000D01*
X173311000Y-103543000D02*
X173811000Y-103043000D01*
X173311000Y-103893000D02*
X173311000Y-103543000D01*
X173311000Y-100593000D02*
X174661000Y-100593000D01*
X174661000Y-100593000D02*
X175211000Y-100043000D01*
X173611000Y-102093000D02*
X173961000Y-102443000D01*
X173311000Y-102093000D02*
X173611000Y-102093000D01*
X173611000Y-102093000D02*
X173761000Y-102243000D01*
X176481000Y-96173000D02*
X177711000Y-94943000D01*
X174581000Y-96173000D02*
X176481000Y-96173000D01*
X174011000Y-96743000D02*
X174581000Y-96173000D01*
X174011000Y-98943000D02*
X174011000Y-96743000D01*
X173311000Y-99093000D02*
X173861000Y-99093000D01*
X173861000Y-99093000D02*
X174011000Y-98943000D01*
X174511000Y-103543000D02*
X176411000Y-103543000D01*
X173661000Y-104393000D02*
X174511000Y-103543000D01*
X173311000Y-104393000D02*
X173661000Y-104393000D01*
X176411000Y-103543000D02*
X177811000Y-104943000D01*
X173311000Y-105393000D02*
X173891000Y-105393000D01*
X174841000Y-106343000D02*
X176811000Y-106343000D01*
X173891000Y-105393000D02*
X174841000Y-106343000D01*
X176811000Y-106343000D02*
X177711000Y-107243000D01*
X176411000Y-104343000D02*
X176411000Y-105543000D01*
X173311000Y-104893000D02*
X173661000Y-104893000D01*
X174711000Y-103843000D02*
X175911000Y-103843000D01*
X173661000Y-104893000D02*
X174711000Y-103843000D01*
X175911000Y-103843000D02*
X176411000Y-104343000D01*
X172761000Y-100093000D02*
X172311000Y-99643000D01*
X172311000Y-98243000D02*
X172711000Y-97843000D01*
X172311000Y-99643000D02*
X172311000Y-98243000D01*
X173311000Y-100093000D02*
X172761000Y-100093000D01*
X173311000Y-101593000D02*
X173861000Y-101593000D01*
X173861000Y-101593000D02*
X174711000Y-102443000D01*
X174711000Y-102443000D02*
X175111000Y-102443000D01*
D52*
X134050000Y-105680000D02*
X134670000Y-105680000D01*
X135305000Y-105850000D02*
X135400000Y-105945000D01*
X134670000Y-105680000D02*
X134840000Y-105850000D01*
X134840000Y-105850000D02*
X135305000Y-105850000D01*
D51*
X137365000Y-105800000D02*
X137365000Y-105480000D01*
X127245300Y-110201700D02*
X126895300Y-110201700D01*
X126895300Y-110201700D02*
X125885300Y-110201700D01*
X127395300Y-109526700D02*
X127395300Y-110051700D01*
X137860000Y-106650000D02*
X137365000Y-106155000D01*
X127395300Y-110051700D02*
X127245300Y-110201700D01*
X125885300Y-110201700D02*
X125870300Y-110216700D01*
X138285000Y-106650000D02*
X137860000Y-106650000D01*
X137365000Y-106155000D02*
X137365000Y-105800000D01*
D52*
X129175000Y-106575000D02*
X129180000Y-106580000D01*
D51*
X128045300Y-110551700D02*
X128195300Y-110701700D01*
X128045300Y-109526700D02*
X128045300Y-110551700D01*
D52*
X129175000Y-105890000D02*
X129175000Y-106575000D01*
D51*
X153500300Y-112246700D02*
X153495300Y-112241700D01*
X154575300Y-112474032D02*
X154347968Y-112246700D01*
X154347968Y-112246700D02*
X153500300Y-112246700D01*
X154460000Y-111585000D02*
X160157000Y-111585000D01*
X152019800Y-111006700D02*
X152275300Y-111006700D01*
X153015300Y-111746700D02*
X154298300Y-111746700D01*
X160157000Y-111585000D02*
X161196000Y-112624000D01*
X151955300Y-110942200D02*
X152019800Y-111006700D01*
X154298300Y-111746700D02*
X154460000Y-111585000D01*
X152275300Y-111006700D02*
X153015300Y-111746700D01*
X150495300Y-113101700D02*
X150945300Y-112651700D01*
X150330300Y-113101700D02*
X150495300Y-113101700D01*
G04 #@! TA.AperFunction,Conductor*
G36*
X133242121Y-99020002D02*
G01*
X133288614Y-99073658D01*
X133300000Y-99126000D01*
X133300000Y-102774000D01*
X133279998Y-102842121D01*
X133226342Y-102888614D01*
X133174000Y-102900000D01*
X132897731Y-102900000D01*
X132878022Y-102898449D01*
X132790000Y-102884508D01*
X132701978Y-102898449D01*
X132682269Y-102900000D01*
X131615250Y-102900000D01*
X131547129Y-102879998D01*
X131544792Y-102878400D01*
X131538342Y-102871950D01*
X131529506Y-102867448D01*
X131529505Y-102867447D01*
X131484824Y-102844681D01*
X131468797Y-102836515D01*
X131417182Y-102787767D01*
X131400000Y-102724248D01*
X131400000Y-99126000D01*
X131420002Y-99057879D01*
X131473658Y-99011386D01*
X131526000Y-99000000D01*
X133174000Y-99000000D01*
X133242121Y-99020002D01*
G37*
G04 #@! TD.AperFunction*
G04 #@! TA.AperFunction,Conductor*
G36*
X140342121Y-103245502D02*
G01*
X140388614Y-103299158D01*
X140400000Y-103351500D01*
X140400000Y-103824083D01*
X140379998Y-103892204D01*
X140326342Y-103938697D01*
X140293711Y-103948532D01*
X140241438Y-103956811D01*
X140241436Y-103956812D01*
X140231647Y-103958362D01*
X140118609Y-104015958D01*
X140028901Y-104105666D01*
X139971305Y-104218704D01*
X139969755Y-104228493D01*
X139969754Y-104228495D01*
X139957272Y-104307307D01*
X139951459Y-104344008D01*
X139971305Y-104469312D01*
X140028901Y-104582350D01*
X140118609Y-104672058D01*
X140231647Y-104729654D01*
X140241436Y-104731204D01*
X140241438Y-104731205D01*
X140293711Y-104739484D01*
X140357864Y-104769897D01*
X140395391Y-104830165D01*
X140400000Y-104863933D01*
X140400000Y-107214000D01*
X140379998Y-107282121D01*
X140326342Y-107328614D01*
X140274000Y-107340000D01*
X138056000Y-107340000D01*
X137987879Y-107319998D01*
X137941386Y-107266342D01*
X137930000Y-107214000D01*
X137930000Y-107051500D01*
X137950002Y-106983379D01*
X138003658Y-106936886D01*
X138056000Y-106925500D01*
X138574820Y-106925500D01*
X138588781Y-106922723D01*
X138606553Y-106919188D01*
X138606555Y-106919187D01*
X138618722Y-106916767D01*
X138629037Y-106909875D01*
X138629722Y-106909591D01*
X138677939Y-106900000D01*
X138980000Y-106900000D01*
X138980000Y-103351500D01*
X139000002Y-103283379D01*
X139053658Y-103236886D01*
X139106000Y-103225500D01*
X140274000Y-103225500D01*
X140342121Y-103245502D01*
G37*
G04 #@! TD.AperFunction*
G04 #@! TA.AperFunction,Conductor*
G36*
X137662121Y-107510002D02*
G01*
X137708614Y-107563658D01*
X137720000Y-107616000D01*
X137720000Y-107940000D01*
X137733222Y-107940134D01*
X137733224Y-107940134D01*
X137861227Y-107941427D01*
X137908420Y-107956003D01*
X137909985Y-107952224D01*
X137921454Y-107956974D01*
X137931769Y-107963867D01*
X137943938Y-107966288D01*
X137943939Y-107966288D01*
X137984184Y-107974293D01*
X137990252Y-107975500D01*
X138132504Y-107975500D01*
X138174253Y-107982618D01*
X138223906Y-108000055D01*
X138229044Y-108000500D01*
X138542628Y-108000500D01*
X138610749Y-108020502D01*
X138631723Y-108037405D01*
X138673095Y-108078777D01*
X138707121Y-108141089D01*
X138710000Y-108167872D01*
X138710000Y-108694000D01*
X138689998Y-108762121D01*
X138636342Y-108808614D01*
X138584000Y-108820000D01*
X137320000Y-108820000D01*
X137320000Y-110744000D01*
X137299998Y-110812121D01*
X137246342Y-110858614D01*
X137194000Y-110870000D01*
X136441500Y-110870000D01*
X136373379Y-110849998D01*
X136326886Y-110796342D01*
X136315500Y-110744000D01*
X136315500Y-110361111D01*
X136315980Y-110350129D01*
X136318303Y-110323576D01*
X136319264Y-110312594D01*
X136316410Y-110301942D01*
X136309511Y-110276192D01*
X136307133Y-110265465D01*
X136302504Y-110239215D01*
X136302502Y-110239210D01*
X136300588Y-110228355D01*
X136295075Y-110218807D01*
X136293883Y-110215531D01*
X136292409Y-110212369D01*
X136289554Y-110201716D01*
X136267945Y-110170856D01*
X136262039Y-110161585D01*
X136248707Y-110138494D01*
X136243194Y-110128945D01*
X136234748Y-110121858D01*
X136229478Y-110115577D01*
X136201014Y-110050536D01*
X136200000Y-110034586D01*
X136200000Y-108294748D01*
X136459500Y-108294748D01*
X136471133Y-108353231D01*
X136515448Y-108419552D01*
X136581769Y-108463867D01*
X136593938Y-108466288D01*
X136593939Y-108466288D01*
X136634184Y-108474293D01*
X136640252Y-108475500D01*
X137229748Y-108475500D01*
X137235816Y-108474293D01*
X137276061Y-108466288D01*
X137276062Y-108466288D01*
X137288231Y-108463867D01*
X137354552Y-108419552D01*
X137398867Y-108353231D01*
X137410500Y-108294748D01*
X137410500Y-108005252D01*
X137398867Y-107946769D01*
X137354552Y-107880448D01*
X137288231Y-107836133D01*
X137276062Y-107833712D01*
X137276061Y-107833712D01*
X137235816Y-107825707D01*
X137229748Y-107824500D01*
X136640252Y-107824500D01*
X136634184Y-107825707D01*
X136593939Y-107833712D01*
X136593938Y-107833712D01*
X136581769Y-107836133D01*
X136515448Y-107880448D01*
X136471133Y-107946769D01*
X136459500Y-108005252D01*
X136459500Y-108294748D01*
X136200000Y-108294748D01*
X136200000Y-107637516D01*
X136220002Y-107569395D01*
X136236905Y-107548421D01*
X136258421Y-107526905D01*
X136320733Y-107492879D01*
X136347516Y-107490000D01*
X137594000Y-107490000D01*
X137662121Y-107510002D01*
G37*
G04 #@! TD.AperFunction*
G04 #@! TA.AperFunction,Conductor*
G36*
X139073566Y-111017313D02*
G01*
X139098876Y-111061150D01*
X139100000Y-111074000D01*
X139100000Y-112426000D01*
X139082687Y-112473566D01*
X139038850Y-112498876D01*
X139026000Y-112500000D01*
X138300000Y-112500000D01*
X138300000Y-113526000D01*
X138282687Y-113573566D01*
X138238850Y-113598876D01*
X138226000Y-113600000D01*
X134774000Y-113600000D01*
X134726434Y-113582687D01*
X134701124Y-113538850D01*
X134700000Y-113526000D01*
X134700000Y-111474000D01*
X134717313Y-111426434D01*
X134761150Y-111401124D01*
X134774000Y-111400000D01*
X137500000Y-111400000D01*
X137500000Y-111074000D01*
X137517313Y-111026434D01*
X137561150Y-111001124D01*
X137574000Y-111000000D01*
X139026000Y-111000000D01*
X139073566Y-111017313D01*
G37*
G04 #@! TD.AperFunction*
G04 #@! TA.AperFunction,Conductor*
G36*
X136233566Y-99017313D02*
G01*
X136258876Y-99061150D01*
X136260000Y-99074000D01*
X136260000Y-104016000D01*
X136242687Y-104063566D01*
X136198850Y-104088876D01*
X136186000Y-104090000D01*
X133624000Y-104090000D01*
X133576434Y-104072687D01*
X133551124Y-104028850D01*
X133550000Y-104016000D01*
X133550000Y-99074000D01*
X133567313Y-99026434D01*
X133611150Y-99001124D01*
X133624000Y-99000000D01*
X136186000Y-99000000D01*
X136233566Y-99017313D01*
G37*
G04 #@! TD.AperFunction*
M02*
